<svg width="937" height="240" viewBox="0 0 937 240" fill="none" xmlns="http://www.w3.org/2000/svg">
<g clip-path="url(#clip0_58_129)">
<path d="M120 240C186.274 240 240 186.274 240 120C240 53.7258 186.274 0 120 0C53.7258 0 0 53.7258 0 120C0 186.274 53.7258 240 120 240Z" fill="#05998B"/>
<path d="M126.818 29.0918L66.4286 138.183H120.779L114.74 210.909L175.13 101.818H120.779L126.818 29.0918Z" fill="white"/>
</g>
<path d="M335.193 84.9091V101.955H273.545V84.9091H335.193ZM290.449 194V72.267C290.449 65.4489 291.94 59.7907 294.923 55.2926C297.906 50.7472 301.86 47.3617 306.784 45.1364C311.708 42.8636 317.059 41.7273 322.835 41.7273C327.097 41.7273 330.742 42.0824 333.773 42.7926C336.803 43.4555 339.052 44.071 340.52 44.6392L335.548 61.8267C334.554 61.5426 333.276 61.2112 331.713 60.8324C330.151 60.4062 328.257 60.1932 326.031 60.1932C320.87 60.1932 317.177 61.4716 314.952 64.0284C312.774 66.5852 311.685 70.2784 311.685 75.108V194H290.449ZM385.531 196.415C378.618 196.415 372.368 195.136 366.781 192.58C361.193 189.975 356.766 186.211 353.499 181.287C350.28 176.363 348.67 170.326 348.67 163.176C348.67 157.021 349.853 151.955 352.221 147.977C354.588 144 357.784 140.851 361.809 138.531C365.834 136.211 370.332 134.459 375.303 133.276C380.275 132.092 385.341 131.192 390.502 130.577C397.036 129.819 402.339 129.204 406.411 128.73C410.483 128.209 413.442 127.381 415.289 126.244C417.136 125.108 418.059 123.261 418.059 120.705V120.207C418.059 114.005 416.307 109.199 412.803 105.79C409.347 102.381 404.186 100.676 397.32 100.676C390.171 100.676 384.536 102.262 380.417 105.435C376.345 108.56 373.528 112.04 371.965 115.875L352.008 111.33C354.375 104.701 357.832 99.3504 362.377 95.2784C366.97 91.1591 372.249 88.1761 378.215 86.3295C384.181 84.4356 390.455 83.4886 397.036 83.4886C401.392 83.4886 406.009 84.0095 410.886 85.0511C415.81 86.0455 420.403 87.892 424.664 90.5909C428.973 93.2898 432.5 97.1487 435.246 102.168C437.993 107.139 439.366 113.602 439.366 121.557V194H418.627V179.085H417.775C416.402 181.831 414.342 184.53 411.596 187.182C408.85 189.833 405.322 192.035 401.013 193.787C396.705 195.539 391.544 196.415 385.531 196.415ZM390.147 179.369C396.018 179.369 401.037 178.209 405.204 175.889C409.418 173.569 412.614 170.539 414.792 166.798C417.017 163.01 418.13 158.962 418.13 154.653V140.591C417.372 141.348 415.905 142.059 413.727 142.722C411.596 143.337 409.157 143.882 406.411 144.355C403.665 144.781 400.99 145.184 398.386 145.562C395.781 145.894 393.603 146.178 391.852 146.415C387.732 146.936 383.968 147.812 380.559 149.043C377.197 150.274 374.498 152.049 372.462 154.369C370.474 156.642 369.479 159.672 369.479 163.46C369.479 168.716 371.421 172.693 375.303 175.392C379.186 178.044 384.134 179.369 390.147 179.369ZM549.398 111.543L530.151 114.952C529.346 112.49 528.067 110.146 526.315 107.92C524.611 105.695 522.291 103.872 519.355 102.452C516.42 101.031 512.75 100.321 508.347 100.321C502.333 100.321 497.314 101.67 493.29 104.369C489.265 107.021 487.253 110.454 487.253 114.668C487.253 118.313 488.602 121.249 491.301 123.474C494 125.7 498.356 127.523 504.369 128.943L521.699 132.92C531.737 135.241 539.218 138.815 544.142 143.645C549.066 148.474 551.528 154.748 551.528 162.466C551.528 169 549.634 174.824 545.847 179.938C542.106 185.004 536.874 188.981 530.151 191.869C523.474 194.758 515.733 196.202 506.926 196.202C494.71 196.202 484.743 193.598 477.026 188.389C469.308 183.134 464.573 175.676 462.821 166.017L483.347 162.892C484.625 168.242 487.253 172.291 491.23 175.037C495.207 177.736 500.392 179.085 506.784 179.085C513.744 179.085 519.308 177.641 523.474 174.753C527.641 171.817 529.724 168.242 529.724 164.028C529.724 160.619 528.446 157.755 525.889 155.435C523.38 153.115 519.521 151.363 514.312 150.179L495.847 146.131C485.667 143.811 478.138 140.117 473.261 135.051C468.432 129.985 466.017 123.569 466.017 115.804C466.017 109.365 467.816 103.73 471.415 98.9006C475.013 94.071 479.985 90.3068 486.33 87.608C492.674 84.8617 499.942 83.4886 508.134 83.4886C519.923 83.4886 529.204 86.0455 535.974 91.1591C542.745 96.2254 547.22 103.02 549.398 111.543ZM625.8 84.9091V101.955H566.212V84.9091H625.8ZM582.192 58.7727H603.428V161.969C603.428 166.088 604.044 169.189 605.275 171.273C606.506 173.309 608.092 174.705 610.033 175.463C612.022 176.173 614.176 176.528 616.496 176.528C618.201 176.528 619.692 176.41 620.971 176.173C622.249 175.937 623.244 175.747 623.954 175.605L627.789 193.148C626.558 193.621 624.806 194.095 622.533 194.568C620.261 195.089 617.42 195.373 614.011 195.42C608.424 195.515 603.215 194.521 598.386 192.438C593.556 190.354 589.65 187.134 586.667 182.778C583.684 178.422 582.192 172.954 582.192 166.372V58.7727ZM681.038 196.415C674.125 196.415 667.875 195.136 662.288 192.58C656.701 189.975 652.274 186.211 649.007 181.287C645.787 176.363 644.178 170.326 644.178 163.176C644.178 157.021 645.361 151.955 647.729 147.977C650.096 144 653.292 140.851 657.317 138.531C661.341 136.211 665.839 134.459 670.811 133.276C675.783 132.092 680.849 131.192 686.01 130.577C692.544 129.819 697.847 129.204 701.919 128.73C705.991 128.209 708.95 127.381 710.797 126.244C712.643 125.108 713.567 123.261 713.567 120.705V120.207C713.567 114.005 711.815 109.199 708.311 105.79C704.855 102.381 699.694 100.676 692.828 100.676C685.679 100.676 680.044 102.262 675.925 105.435C671.853 108.56 669.036 112.04 667.473 115.875L647.516 111.33C649.883 104.701 653.339 99.3504 657.885 95.2784C662.478 91.1591 667.757 88.1761 673.723 86.3295C679.689 84.4356 685.963 83.4886 692.544 83.4886C696.9 83.4886 701.517 84.0095 706.393 85.0511C711.318 86.0455 715.911 87.892 720.172 90.5909C724.481 93.2898 728.008 97.1487 730.754 102.168C733.5 107.139 734.874 113.602 734.874 121.557V194H714.135V179.085H713.283C711.91 181.831 709.85 184.53 707.104 187.182C704.357 189.833 700.83 192.035 696.521 193.787C692.213 195.539 687.052 196.415 681.038 196.415ZM685.655 179.369C691.526 179.369 696.545 178.209 700.712 175.889C704.926 173.569 708.122 170.539 710.3 166.798C712.525 163.01 713.638 158.962 713.638 154.653V140.591C712.88 141.348 711.412 142.059 709.234 142.722C707.104 143.337 704.665 143.882 701.919 144.355C699.173 144.781 696.498 145.184 693.893 145.562C691.289 145.894 689.111 146.178 687.359 146.415C683.24 146.936 679.476 147.812 676.067 149.043C672.705 150.274 670.006 152.049 667.97 154.369C665.982 156.642 664.987 159.672 664.987 163.46C664.987 168.716 666.929 172.693 670.811 175.392C674.694 178.044 679.642 179.369 685.655 179.369ZM763.158 234.909V84.9091H783.897V102.594H785.673C786.904 100.321 788.679 97.6932 790.999 94.7102C793.319 91.7273 796.539 89.1231 800.658 86.8977C804.778 84.625 810.223 83.4886 816.994 83.4886C825.8 83.4886 833.66 85.714 840.573 90.1648C847.486 94.6155 852.907 101.031 856.837 109.412C860.815 117.793 862.803 127.878 862.803 139.668C862.803 151.457 860.838 161.566 856.908 169.994C852.978 178.375 847.581 184.838 840.715 189.384C833.85 193.882 826.013 196.131 817.207 196.131C810.578 196.131 805.156 195.018 800.942 192.793C796.776 190.567 793.509 187.963 791.141 184.98C788.774 181.997 786.951 179.346 785.673 177.026H784.394V234.909H763.158ZM783.968 139.455C783.968 147.125 785.081 153.848 787.306 159.625C789.531 165.402 792.751 169.923 796.965 173.19C801.179 176.41 806.34 178.02 812.448 178.02C818.793 178.02 824.096 176.339 828.357 172.977C832.619 169.568 835.838 164.952 838.016 159.128C840.242 153.304 841.354 146.746 841.354 139.455C841.354 132.258 840.265 125.795 838.087 120.065C835.957 114.336 832.737 109.814 828.428 106.5C824.167 103.186 818.84 101.528 812.448 101.528C806.293 101.528 801.085 103.115 796.823 106.287C792.609 109.459 789.413 113.886 787.235 119.568C785.057 125.25 783.968 131.879 783.968 139.455ZM886.596 194V84.9091H907.832V194H886.596ZM897.32 68.0767C893.627 68.0767 890.455 66.8456 887.803 64.3835C885.199 61.874 883.897 58.8911 883.897 55.4347C883.897 51.9309 885.199 48.9479 887.803 46.4858C890.455 43.9763 893.627 42.7216 897.32 42.7216C901.013 42.7216 904.162 43.9763 906.766 46.4858C909.418 48.9479 910.744 51.9309 910.744 55.4347C910.744 58.8911 909.418 61.874 906.766 64.3835C904.162 66.8456 901.013 68.0767 897.32 68.0767Z" fill="black"/>
<defs>
<clipPath id="clip0_58_129">
<rect width="240" height="240" fill="white"/>
</clipPath>
</defs>
</svg>
