<svg width="1221" height="240" viewBox="0 0 1221 240" fill="none" xmlns="http://www.w3.org/2000/svg">
<path d="M283.276 84.9091H304.511V201.102C304.511 208.394 303.186 214.549 300.534 219.568C297.93 224.587 294.047 228.399 288.886 231.003C283.773 233.607 277.452 234.909 269.923 234.909C269.166 234.909 268.455 234.909 267.793 234.909C267.082 234.909 266.348 234.885 265.591 234.838V216.585C266.254 216.585 266.846 216.585 267.366 216.585C267.84 216.585 268.384 216.585 269 216.585C274.019 216.585 277.641 215.236 279.866 212.537C282.139 209.885 283.276 206.027 283.276 200.96V84.9091ZM293.787 68.0767C290.094 68.0767 286.921 66.8456 284.27 64.3835C281.666 61.874 280.364 58.8911 280.364 55.4347C280.364 51.9309 281.666 48.9479 284.27 46.4858C286.921 43.9763 290.094 42.7216 293.787 42.7216C297.48 42.7216 300.629 43.9763 303.233 46.4858C305.884 48.9479 307.21 51.9309 307.21 55.4347C307.21 58.8911 305.884 61.874 303.233 64.3835C300.629 66.8456 297.48 68.0767 293.787 68.0767ZM364.827 196.415C357.915 196.415 351.665 195.136 346.077 192.58C340.49 189.975 336.063 186.211 332.796 181.287C329.576 176.363 327.967 170.326 327.967 163.176C327.967 157.021 329.15 151.955 331.518 147.977C333.885 144 337.081 140.851 341.106 138.531C345.13 136.211 349.629 134.459 354.6 133.276C359.572 132.092 364.638 131.192 369.799 130.577C376.333 129.819 381.636 129.204 385.708 128.73C389.78 128.209 392.739 127.381 394.586 126.244C396.433 125.108 397.356 123.261 397.356 120.705V120.207C397.356 114.005 395.604 109.199 392.1 105.79C388.644 102.381 383.483 100.676 376.617 100.676C369.468 100.676 363.833 102.262 359.714 105.435C355.642 108.56 352.825 112.04 351.262 115.875L331.305 111.33C333.672 104.701 337.129 99.3504 341.674 95.2784C346.267 91.1591 351.546 88.1761 357.512 86.3295C363.478 84.4356 369.752 83.4886 376.333 83.4886C380.689 83.4886 385.306 84.0095 390.183 85.0511C395.107 86.0455 399.7 87.892 403.961 90.5909C408.27 93.2898 411.797 97.1487 414.543 102.168C417.29 107.139 418.663 113.602 418.663 121.557V194H397.924V179.085H397.072C395.699 181.831 393.639 184.53 390.893 187.182C388.147 189.833 384.619 192.035 380.31 193.787C376.002 195.539 370.841 196.415 364.827 196.415ZM369.444 179.369C375.315 179.369 380.334 178.209 384.501 175.889C388.715 173.569 391.911 170.539 394.089 166.798C396.314 163.01 397.427 158.962 397.427 154.653V140.591C396.669 141.348 395.201 142.059 393.023 142.722C390.893 143.337 388.454 143.882 385.708 144.355C382.962 144.781 380.287 145.184 377.683 145.562C375.078 145.894 372.9 146.178 371.148 146.415C367.029 146.936 363.265 147.812 359.856 149.043C356.494 150.274 353.795 152.049 351.759 154.369C349.771 156.642 348.776 159.672 348.776 163.46C348.776 168.716 350.718 172.693 354.6 175.392C358.483 178.044 363.431 179.369 369.444 179.369ZM536.365 84.9091L496.805 194H474.078L434.447 84.9091H457.246L484.874 168.858H486.01L513.567 84.9091H536.365ZM584.945 196.415C578.032 196.415 571.782 195.136 566.195 192.58C560.607 189.975 556.18 186.211 552.913 181.287C549.694 176.363 548.084 170.326 548.084 163.176C548.084 157.021 549.268 151.955 551.635 147.977C554.002 144 557.198 140.851 561.223 138.531C565.248 136.211 569.746 134.459 574.717 133.276C579.689 132.092 584.755 131.192 589.916 130.577C596.45 129.819 601.753 129.204 605.825 128.73C609.897 128.209 612.857 127.381 614.703 126.244C616.55 125.108 617.473 123.261 617.473 120.705V120.207C617.473 114.005 615.721 109.199 612.217 105.79C608.761 102.381 603.6 100.676 596.734 100.676C589.585 100.676 583.95 102.262 579.831 105.435C575.759 108.56 572.942 112.04 571.379 115.875L551.422 111.33C553.789 104.701 557.246 99.3504 561.791 95.2784C566.384 91.1591 571.663 88.1761 577.629 86.3295C583.595 84.4356 589.869 83.4886 596.45 83.4886C600.806 83.4886 605.423 84.0095 610.3 85.0511C615.224 86.0455 619.817 87.892 624.078 90.5909C628.387 93.2898 631.914 97.1487 634.661 102.168C637.407 107.139 638.78 113.602 638.78 121.557V194H618.041V179.085H617.189C615.816 181.831 613.756 184.53 611.01 187.182C608.264 189.833 604.736 192.035 600.428 193.787C596.119 195.539 590.958 196.415 584.945 196.415ZM589.561 179.369C595.432 179.369 600.451 178.209 604.618 175.889C608.832 173.569 612.028 170.539 614.206 166.798C616.431 163.01 617.544 158.962 617.544 154.653V140.591C616.786 141.348 615.319 142.059 613.141 142.722C611.01 143.337 608.571 143.882 605.825 144.355C603.079 144.781 600.404 145.184 597.8 145.562C595.196 145.894 593.018 146.178 591.266 146.415C587.146 146.936 583.382 147.812 579.973 149.043C576.611 150.274 573.912 152.049 571.876 154.369C569.888 156.642 568.893 159.672 568.893 163.46C568.893 168.716 570.835 172.693 574.717 175.392C578.6 178.044 583.548 179.369 589.561 179.369ZM748.812 111.543L729.565 114.952C728.76 112.49 727.481 110.146 725.729 107.92C724.025 105.695 721.705 103.872 718.769 102.452C715.834 101.031 712.164 100.321 707.761 100.321C701.747 100.321 696.728 101.67 692.704 104.369C688.679 107.021 686.667 110.454 686.667 114.668C686.667 118.313 688.016 121.249 690.715 123.474C693.414 125.7 697.77 127.523 703.783 128.943L721.113 132.92C731.151 135.241 738.632 138.815 743.556 143.645C748.48 148.474 750.942 154.748 750.942 162.466C750.942 169 749.049 174.824 745.261 179.938C741.52 185.004 736.288 188.981 729.565 191.869C722.888 194.758 715.147 196.202 706.34 196.202C694.124 196.202 684.157 193.598 676.44 188.389C668.722 183.134 663.987 175.676 662.235 166.017L682.761 162.892C684.039 168.242 686.667 172.291 690.644 175.037C694.621 177.736 699.806 179.085 706.198 179.085C713.158 179.085 718.722 177.641 722.888 174.753C727.055 171.817 729.138 168.242 729.138 164.028C729.138 160.619 727.86 157.755 725.303 155.435C722.794 153.115 718.935 151.363 713.727 150.179L695.261 146.131C685.081 143.811 677.552 140.117 672.675 135.051C667.846 129.985 665.431 123.569 665.431 115.804C665.431 109.365 667.23 103.73 670.829 98.9006C674.427 94.071 679.399 90.3068 685.744 87.608C692.088 84.8617 699.356 83.4886 707.548 83.4886C719.337 83.4886 728.618 86.0455 735.388 91.1591C742.159 96.2254 746.634 103.02 748.812 111.543ZM820.243 196.202C809.684 196.202 800.593 193.811 792.97 189.028C785.394 184.199 779.571 177.546 775.499 169.071C771.427 160.596 769.391 150.889 769.391 139.952C769.391 128.872 771.474 119.095 775.641 110.619C779.807 102.097 785.679 95.4441 793.254 90.6619C800.83 85.8797 809.755 83.4886 820.03 83.4886C828.316 83.4886 835.702 85.0275 842.189 88.1051C848.676 91.1354 853.908 95.3968 857.885 100.889C861.91 106.382 864.301 112.797 865.058 120.136H844.391C843.254 115.023 840.65 110.619 836.578 106.926C832.554 103.233 827.156 101.386 820.385 101.386C814.466 101.386 809.282 102.949 804.831 106.074C800.428 109.152 796.995 113.555 794.533 119.284C792.071 124.966 790.839 131.689 790.839 139.455C790.839 147.409 792.047 154.275 794.462 160.051C796.876 165.828 800.286 170.302 804.689 173.474C809.14 176.647 814.372 178.233 820.385 178.233C824.41 178.233 828.055 177.499 831.322 176.031C834.637 174.516 837.407 172.362 839.632 169.568C841.905 166.775 843.491 163.413 844.391 159.483H865.058C864.301 166.538 862.004 172.835 858.169 178.375C854.334 183.915 849.196 188.271 842.757 191.443C836.365 194.616 828.86 196.202 820.243 196.202ZM887.768 194V84.9091H908.293V102.239H909.43C911.418 96.3674 914.922 91.7509 919.941 88.3892C925.007 84.9801 930.737 83.2756 937.129 83.2756C938.454 83.2756 940.017 83.3229 941.816 83.4176C943.663 83.5123 945.107 83.6307 946.148 83.7727V104.085C945.296 103.848 943.781 103.588 941.603 103.304C939.425 102.973 937.247 102.807 935.069 102.807C930.05 102.807 925.576 103.872 921.646 106.003C917.763 108.086 914.685 110.998 912.413 114.739C910.14 118.432 909.004 122.646 909.004 127.381V194H887.768ZM964.526 194V84.9091H985.761V194H964.526ZM975.25 68.0767C971.557 68.0767 968.384 66.8456 965.733 64.3835C963.129 61.874 961.827 58.8911 961.827 55.4347C961.827 51.9309 963.129 48.9479 965.733 46.4858C968.384 43.9763 971.557 42.7216 975.25 42.7216C978.943 42.7216 982.092 43.9763 984.696 46.4858C987.348 48.9479 988.673 51.9309 988.673 55.4347C988.673 58.8911 987.348 61.874 984.696 64.3835C982.092 66.8456 978.943 68.0767 975.25 68.0767ZM1014.33 234.909V84.9091H1035.07V102.594H1036.84C1038.08 100.321 1039.85 97.6932 1042.17 94.7102C1044.49 91.7273 1047.71 89.1231 1051.83 86.8977C1055.95 84.625 1061.39 83.4886 1068.17 83.4886C1076.97 83.4886 1084.83 85.714 1091.75 90.1648C1098.66 94.6155 1104.08 101.031 1108.01 109.412C1111.99 117.793 1113.98 127.878 1113.98 139.668C1113.98 151.457 1112.01 161.566 1108.08 169.994C1104.15 178.375 1098.75 184.838 1091.89 189.384C1085.02 193.882 1077.19 196.131 1068.38 196.131C1061.75 196.131 1056.33 195.018 1052.11 192.793C1047.95 190.567 1044.68 187.963 1042.31 184.98C1039.95 181.997 1038.12 179.346 1036.84 177.026H1035.57V234.909H1014.33ZM1035.14 139.455C1035.14 147.125 1036.25 153.848 1038.48 159.625C1040.7 165.402 1043.92 169.923 1048.14 173.19C1052.35 176.41 1057.51 178.02 1063.62 178.02C1069.96 178.02 1075.27 176.339 1079.53 172.977C1083.79 169.568 1087.01 164.952 1089.19 159.128C1091.41 153.304 1092.53 146.746 1092.53 139.455C1092.53 132.258 1091.44 125.795 1089.26 120.065C1087.13 114.336 1083.91 109.814 1079.6 106.5C1075.34 103.186 1070.01 101.528 1063.62 101.528C1057.46 101.528 1052.26 103.115 1048 106.287C1043.78 109.459 1040.58 113.886 1038.41 119.568C1036.23 125.25 1035.14 131.879 1035.14 139.455ZM1188.69 84.9091V101.955H1129.1V84.9091H1188.69ZM1145.08 58.7727H1166.32V161.969C1166.32 166.088 1166.93 169.189 1168.17 171.273C1169.4 173.309 1170.98 174.705 1172.92 175.463C1174.91 176.173 1177.07 176.528 1179.39 176.528C1181.09 176.528 1182.58 176.41 1183.86 176.173C1185.14 175.937 1186.13 175.747 1186.84 175.605L1190.68 193.148C1189.45 193.621 1187.7 194.095 1185.42 194.568C1183.15 195.089 1180.31 195.373 1176.9 195.42C1171.31 195.515 1166.11 194.521 1161.28 192.438C1156.45 190.354 1152.54 187.134 1149.56 182.778C1146.57 178.422 1145.08 172.954 1145.08 166.372V58.7727Z" fill="black"/>
<g clip-path="url(#clip0_57_73)">
<path d="M204 0H36C16.1178 0 0 16.1178 0 36V204C0 223.882 16.1178 240 36 240H204C223.882 240 240 223.882 240 204V36C240 16.1178 223.882 0 204 0Z" fill="#F7DF1E"/>
<path d="M151.875 173.438C156.562 181.406 163.125 187.031 173.906 187.031C183.281 187.031 189.375 182.344 189.375 175.781C189.375 168.281 183.281 165.469 172.969 160.781L167.344 158.438C150.938 151.406 140.156 142.969 140.156 124.688C140.156 107.812 152.812 94.6875 172.969 94.6875C187.5 94.6875 197.812 99.8438 204.844 112.969L187.5 124.219C183.75 117.188 179.531 114.375 172.969 114.375C166.406 114.375 162.188 118.594 162.188 124.219C162.188 130.781 166.406 133.594 176.25 137.812L181.875 140.156C201.094 148.594 211.875 156.562 211.875 175.781C211.875 195.938 195.938 207.188 174.375 207.188C153.281 207.188 139.688 197.344 133.125 184.219L151.875 173.438ZM72.1875 175.312C75.9375 181.406 78.75 187.031 86.7188 187.031C94.2188 187.031 98.9062 184.219 98.9062 172.969V95.1562H121.406V172.031C121.406 195.469 107.812 205.781 87.6562 205.781C69.375 205.781 59.0625 196.406 53.9062 185.156L72.1875 175.312Z" fill="black"/>
</g>
<defs>
<clipPath id="clip0_57_73">
<rect width="240" height="240" fill="white"/>
</clipPath>
</defs>
</svg>
