<svg width="88" height="88" viewBox="0 0 88 88" fill="none" xmlns="http://www.w3.org/2000/svg">
<rect x="0.5" y="0.5" width="87" height="87" rx="43.5" fill="url(#paint0_linear_10_46485)"/>
<rect x="0.5" y="0.5" width="87" height="87" rx="43.5" stroke="url(#paint1_linear_10_46485)"/>
<g filter="url(#filter0_d_10_46485)">
<rect x="16" y="16" width="56" height="56" rx="28" fill="white"/>
<rect x="16.5" y="16.5" width="55" height="55" rx="27.5" stroke="#E2E4E9"/>
<path d="M46.1 46.3648V48.5593C45.1497 48.2233 44.1326 48.1202 43.1342 48.2588C42.1358 48.3973 41.1852 48.7734 40.3622 49.3554C39.5393 49.9374 38.868 50.7085 38.4047 51.6037C37.9415 52.4989 37.6998 53.4922 37.7 54.5002L35.6 54.4991C35.5997 53.217 35.8929 51.9517 36.4571 50.8004C37.0214 49.6491 37.8417 48.6422 38.8552 47.8569C39.8688 47.0716 41.0486 46.5287 42.3044 46.2699C43.5602 46.0111 44.8586 46.0432 46.1 46.3637V46.3648ZM44 45.0502C40.5193 45.0502 37.7 42.2309 37.7 38.7502C37.7 35.2694 40.5193 32.4502 44 32.4502C47.4808 32.4502 50.3 35.2694 50.3 38.7502C50.3 42.2309 47.4808 45.0502 44 45.0502ZM44 42.9502C46.3205 42.9502 48.2 41.0707 48.2 38.7502C48.2 36.4297 46.3205 34.5502 44 34.5502C41.6795 34.5502 39.8 36.4297 39.8 38.7502C39.8 41.0707 41.6795 42.9502 44 42.9502ZM50.9153 49.2502L48.9949 47.3308L50.4806 45.845L54.9347 50.3002L50.4806 54.7553L48.9949 53.2696L50.9153 51.3502H47.15V49.2502H50.9153Z" fill="#525866"/>
</g>
<defs>
<filter id="filter0_d_10_46485" x="12" y="14" width="64" height="64" filterUnits="userSpaceOnUse" color-interpolation-filters="sRGB">
<feFlood flood-opacity="0" result="BackgroundImageFix"/>
<feColorMatrix in="SourceAlpha" type="matrix" values="0 0 0 0 0 0 0 0 0 0 0 0 0 0 0 0 0 0 127 0" result="hardAlpha"/>
<feOffset dy="2"/>
<feGaussianBlur stdDeviation="2"/>
<feColorMatrix type="matrix" values="0 0 0 0 0.105882 0 0 0 0 0.109804 0 0 0 0 0.113725 0 0 0 0.04 0"/>
<feBlend mode="normal" in2="BackgroundImageFix" result="effect1_dropShadow_10_46485"/>
<feBlend mode="normal" in="SourceGraphic" in2="effect1_dropShadow_10_46485" result="shape"/>
</filter>
<linearGradient id="paint0_linear_10_46485" x1="44" y1="0" x2="44" y2="88" gradientUnits="userSpaceOnUse">
<stop stop-color="#E4E5E7" stop-opacity="0.48"/>
<stop offset="1" stop-color="#F7F8F8" stop-opacity="0"/>
<stop offset="1" stop-color="#E4E5E7" stop-opacity="0"/>
</linearGradient>
<linearGradient id="paint1_linear_10_46485" x1="44" y1="0" x2="44" y2="88" gradientUnits="userSpaceOnUse">
<stop stop-color="#E4E5E7"/>
<stop offset="0.765625" stop-color="#E4E5E7" stop-opacity="0"/>
</linearGradient>
</defs>
</svg>
