<svg width="496" height="248" viewBox="0 0 496 248" fill="none" xmlns="http://www.w3.org/2000/svg">
<path d="M495.41 18.0161C495.41 24.1979 491.068 27.5831 485.475 22.7996C487.536 33.2498 484.739 37.7389 474.216 29.2022C460.895 18.3841 453.683 31.41 451.181 43.6999C445.514 72.0331 446.545 99.5567 436.315 127.448C425.497 156.885 405.554 177.786 376.411 189.413C371.922 191.032 381.71 208.179 382.74 210.681C387.229 221.573 392.381 228.785 398.93 238.205C405.922 248.214 371.186 253.66 368.978 239.015C367.138 226.43 361.472 212.742 351.463 204.353C341.97 210.902 343.294 230.404 349.77 237.396C356.762 244.755 333.801 242.989 331.593 242.989C316.212 242.989 319.966 228.785 320.628 216.716C321.437 202.807 320.996 199.422 308.927 193.755C297.667 188.457 298.771 191.474 297.961 204.205C297.446 211.491 297.005 218.777 297.005 226.136C297.005 231.508 309 236.218 305.173 241.59C301.862 246.227 277.282 243.062 274.117 240.928C262.342 232.023 266.979 210.976 260.356 198.98C255.13 189.56 249.169 207.223 247.624 210.24C244.386 216.569 237.321 225.032 239.897 232.612C241.148 236.512 252.26 243.283 244.68 244.46C242.031 244.902 239.382 244.828 236.732 244.902C231.434 245.196 208.694 247.183 208.694 241.075C208.694 229.006 210.165 218.188 213.403 206.56C216.274 196.257 214.875 179.037 198.906 188.824C187.867 195.521 179.109 207.885 169.027 216.275C160.49 223.339 151.438 230.036 141.43 234.673C129.361 240.266 114.863 242.253 101.248 242.032C79.3178 242.032 56.0625 237.984 41.1232 220.396C34.4263 212.595 30.1579 203.175 27.2878 193.387C24.5649 183.452 26.5519 175.872 15.2922 171.236C10.5087 169.322 -9.87646 156.444 5.87236 153.868C15.8074 152.102 25.9631 158.578 32.2185 165.643C44.2877 179.11 42.3743 198.465 55.9153 211.859C71.0018 226.798 94.9194 227.829 112.729 217.084C132.672 205.162 141.209 181.171 151.218 161.522C170.205 124.137 196.992 81.6001 237.247 64.7474C259.178 55.6219 283.832 55.6219 306.498 61.7301C327.987 67.5439 342.779 78.4356 359.705 91.9767C378.766 107.21 396.723 106.254 407.835 83.2927C416.445 65.4833 420.714 45.7605 429.839 28.1719C439.48 9.77374 456.185 -3.76729 477.969 0.942634C486.726 2.85604 495.41 8.37548 495.41 18.0161Z" fill="black"/>
</svg>
