<svg width="1326" height="240" viewBox="0 0 1326 240" fill="none" xmlns="http://www.w3.org/2000/svg">
<path d="M0 128.295V24.375L90 76.335V110.975L30 76.335V145.615L0 128.295Z" fill="#00B0FF"/>
<path d="M90 76.335L180 24.375V128.295L120 162.935L90 145.615L150 110.975V76.335L90 110.975V76.335Z" fill="#0081CB"/>
<path d="M90 145.615V180.255L150 214.895V180.255L90 145.615Z" fill="#00B0FF"/>
<path d="M150 214.895L240 162.935V93.655L210 110.975V145.615L150 180.255V214.895ZM210 76.335V41.695L240 24.375V59.015L210 76.335Z" fill="#0081CB"/>
<path d="M283.276 194V84.9091H303.659V102.665H305.009C307.281 96.6515 310.998 91.964 316.159 88.6023C321.32 85.1932 327.499 83.4886 334.696 83.4886C341.988 83.4886 348.096 85.1932 353.02 88.6023C357.991 92.0114 361.661 96.6989 364.028 102.665H365.165C367.769 96.8409 371.912 92.2008 377.594 88.7443C383.276 85.2405 390.046 83.4886 397.906 83.4886C407.802 83.4886 415.875 86.59 422.125 92.7926C428.422 98.9953 431.571 108.347 431.571 120.847V194H410.335V122.835C410.335 115.449 408.323 110.098 404.298 106.784C400.274 103.47 395.468 101.812 389.881 101.812C382.968 101.812 377.594 103.943 373.759 108.205C369.923 112.419 368.006 117.84 368.006 124.469V194H346.841V121.486C346.841 115.567 344.994 110.809 341.301 107.21C337.608 103.612 332.802 101.812 326.884 101.812C322.859 101.812 319.142 102.878 315.733 105.009C312.371 107.092 309.649 110.004 307.565 113.744C305.529 117.485 304.511 121.817 304.511 126.741V194H283.276ZM491.781 196.415C484.868 196.415 478.618 195.136 473.031 192.58C467.443 189.975 463.016 186.211 459.749 181.287C456.53 176.363 454.92 170.326 454.92 163.176C454.92 157.021 456.103 151.955 458.471 147.977C460.838 144 464.034 140.851 468.059 138.531C472.084 136.211 476.582 134.459 481.553 133.276C486.525 132.092 491.591 131.192 496.752 130.577C503.286 129.819 508.589 129.204 512.661 128.73C516.733 128.209 519.692 127.381 521.539 126.244C523.386 125.108 524.309 123.261 524.309 120.705V120.207C524.309 114.005 522.557 109.199 519.053 105.79C515.597 102.381 510.436 100.676 503.57 100.676C496.421 100.676 490.786 102.262 486.667 105.435C482.595 108.56 479.778 112.04 478.215 115.875L458.258 111.33C460.625 104.701 464.082 99.3504 468.627 95.2784C473.22 91.1591 478.499 88.1761 484.465 86.3295C490.431 84.4356 496.705 83.4886 503.286 83.4886C507.642 83.4886 512.259 84.0095 517.136 85.0511C522.06 86.0455 526.653 87.892 530.914 90.5909C535.223 93.2898 538.75 97.1487 541.496 102.168C544.243 107.139 545.616 113.602 545.616 121.557V194H524.877V179.085H524.025C522.652 181.831 520.592 184.53 517.846 187.182C515.1 189.833 511.572 192.035 507.263 193.787C502.955 195.539 497.794 196.415 491.781 196.415ZM496.397 179.369C502.268 179.369 507.287 178.209 511.454 175.889C515.668 173.569 518.864 170.539 521.042 166.798C523.267 163.01 524.38 158.962 524.38 154.653V140.591C523.622 141.348 522.155 142.059 519.977 142.722C517.846 143.337 515.407 143.882 512.661 144.355C509.915 144.781 507.24 145.184 504.636 145.562C502.031 145.894 499.853 146.178 498.102 146.415C493.982 146.936 490.218 147.812 486.809 149.043C483.447 150.274 480.748 152.049 478.712 154.369C476.724 156.642 475.729 159.672 475.729 163.46C475.729 168.716 477.671 172.693 481.553 175.392C485.436 178.044 490.384 179.369 496.397 179.369ZM624.824 84.9091V101.955H565.236V84.9091H624.824ZM581.216 58.7727H602.452V161.969C602.452 166.088 603.067 169.189 604.298 171.273C605.529 173.309 607.116 174.705 609.057 175.463C611.045 176.173 613.2 176.528 615.52 176.528C617.224 176.528 618.716 176.41 619.994 176.173C621.273 175.937 622.267 175.747 622.977 175.605L626.812 193.148C625.581 193.621 623.83 194.095 621.557 194.568C619.284 195.089 616.443 195.373 613.034 195.42C607.447 195.515 602.239 194.521 597.409 192.438C592.58 190.354 588.673 187.134 585.69 182.778C582.707 178.422 581.216 172.954 581.216 166.372V58.7727ZM694.16 196.202C683.412 196.202 674.155 193.905 666.39 189.312C658.672 184.672 652.706 178.162 648.492 169.781C644.326 161.353 642.242 151.481 642.242 140.165C642.242 128.991 644.326 119.142 648.492 110.619C652.706 102.097 658.577 95.4441 666.106 90.6619C673.682 85.8797 682.536 83.4886 692.668 83.4886C698.824 83.4886 704.79 84.5066 710.566 86.5426C716.343 88.5786 721.527 91.7746 726.12 96.1307C730.713 100.487 734.335 106.145 736.987 113.105C739.638 120.018 740.964 128.422 740.964 138.318V145.847H654.245V129.938H720.154C720.154 124.35 719.018 119.402 716.745 115.094C714.472 110.738 711.276 107.305 707.157 104.795C703.085 102.286 698.303 101.031 692.81 101.031C686.844 101.031 681.636 102.499 677.185 105.435C672.782 108.323 669.373 112.111 666.958 116.798C664.591 121.438 663.407 126.481 663.407 131.926V144.355C663.407 151.647 664.685 157.849 667.242 162.963C669.846 168.077 673.469 171.983 678.109 174.682C682.749 177.333 688.17 178.659 694.373 178.659C698.397 178.659 702.067 178.091 705.381 176.955C708.696 175.771 711.56 174.019 713.975 171.699C716.39 169.379 718.237 166.514 719.515 163.105L739.614 166.727C738.004 172.646 735.116 177.83 730.95 182.281C726.83 186.685 721.646 190.117 715.396 192.58C709.193 194.994 702.114 196.202 694.16 196.202ZM764.526 194V84.9091H785.051V102.239H786.188C788.176 96.3674 791.68 91.7509 796.699 88.3892C801.765 84.9801 807.494 83.2756 813.886 83.2756C815.212 83.2756 816.775 83.3229 818.574 83.4176C820.42 83.5123 821.865 83.6307 822.906 83.7727V104.085C822.054 103.848 820.539 103.588 818.361 103.304C816.183 102.973 814.005 102.807 811.827 102.807C806.808 102.807 802.333 103.872 798.403 106.003C794.521 108.086 791.443 110.998 789.17 114.739C786.898 118.432 785.761 122.646 785.761 127.381V194H764.526ZM841.283 194V84.9091H862.519V194H841.283ZM852.008 68.0767C848.315 68.0767 845.142 66.8456 842.491 64.3835C839.887 61.874 838.585 58.8911 838.585 55.4347C838.585 51.9309 839.887 48.9479 842.491 46.4858C845.142 43.9763 848.315 42.7216 852.008 42.7216C855.701 42.7216 858.85 43.9763 861.454 46.4858C864.105 48.9479 865.431 51.9309 865.431 55.4347C865.431 58.8911 864.105 61.874 861.454 64.3835C858.85 66.8456 855.701 68.0767 852.008 68.0767ZM922.835 196.415C915.922 196.415 909.672 195.136 904.085 192.58C898.498 189.975 894.071 186.211 890.804 181.287C887.584 176.363 885.974 170.326 885.974 163.176C885.974 157.021 887.158 151.955 889.526 147.977C891.893 144 895.089 140.851 899.114 138.531C903.138 136.211 907.636 134.459 912.608 133.276C917.58 132.092 922.646 131.192 927.807 130.577C934.341 129.819 939.644 129.204 943.716 128.73C947.788 128.209 950.747 127.381 952.594 126.244C954.44 125.108 955.364 123.261 955.364 120.705V120.207C955.364 114.005 953.612 109.199 950.108 105.79C946.652 102.381 941.491 100.676 934.625 100.676C927.475 100.676 921.841 102.262 917.722 105.435C913.65 108.56 910.832 112.04 909.27 115.875L889.312 111.33C891.68 104.701 895.136 99.3504 899.682 95.2784C904.275 91.1591 909.554 88.1761 915.52 86.3295C921.486 84.4356 927.759 83.4886 934.341 83.4886C938.697 83.4886 943.313 84.0095 948.19 85.0511C953.115 86.0455 957.707 87.892 961.969 90.5909C966.277 93.2898 969.805 97.1487 972.551 102.168C975.297 107.139 976.67 113.602 976.67 121.557V194H955.932V179.085H955.08C953.706 181.831 951.647 184.53 948.901 187.182C946.154 189.833 942.627 192.035 938.318 193.787C934.009 195.539 928.848 196.415 922.835 196.415ZM927.452 179.369C933.323 179.369 938.342 178.209 942.509 175.889C946.723 173.569 949.919 170.539 952.097 166.798C954.322 163.01 955.435 158.962 955.435 154.653V140.591C954.677 141.348 953.209 142.059 951.031 142.722C948.901 143.337 946.462 143.882 943.716 144.355C940.97 144.781 938.295 145.184 935.69 145.562C933.086 145.894 930.908 146.178 929.156 146.415C925.037 146.936 921.273 147.812 917.864 149.043C914.502 150.274 911.803 152.049 909.767 154.369C907.778 156.642 906.784 159.672 906.784 163.46C906.784 168.716 908.725 172.693 912.608 175.392C916.491 178.044 921.438 179.369 927.452 179.369ZM1026.19 48.5455V194H1004.96V48.5455H1026.19ZM1119.04 123.332V141.727H1054.55V123.332H1119.04ZM1216.44 148.759V84.9091H1237.75V194H1216.87V175.108H1215.73C1213.22 180.932 1209.2 185.785 1203.66 189.668C1198.17 193.503 1191.32 195.42 1183.13 195.42C1176.13 195.42 1169.92 193.882 1164.53 190.804C1159.18 187.679 1154.96 183.062 1151.88 176.955C1148.85 170.847 1147.34 163.295 1147.34 154.298V84.9091H1168.57V151.741C1168.57 159.175 1170.63 165.094 1174.75 169.497C1178.87 173.901 1184.22 176.102 1190.8 176.102C1194.78 176.102 1198.73 175.108 1202.66 173.119C1206.64 171.131 1209.93 168.124 1212.54 164.099C1215.19 160.075 1216.49 154.961 1216.44 148.759ZM1266.28 194V84.9091H1287.52V194H1266.28ZM1277.01 68.0767C1273.31 68.0767 1270.14 66.8456 1267.49 64.3835C1264.89 61.874 1263.58 58.8911 1263.58 55.4347C1263.58 51.9309 1264.89 48.9479 1267.49 46.4858C1270.14 43.9763 1273.31 42.7216 1277.01 42.7216C1280.7 42.7216 1283.85 43.9763 1286.45 46.4858C1289.11 48.9479 1290.43 51.9309 1290.43 55.4347C1290.43 58.8911 1289.11 61.874 1286.45 64.3835C1283.85 66.8456 1280.7 68.0767 1277.01 68.0767Z" fill="black"/>
</svg>
