<svg width="955" height="240" viewBox="0 0 955 240" fill="none" xmlns="http://www.w3.org/2000/svg">
<path fill-rule="evenodd" clip-rule="evenodd" d="M97.623 15C81.1448 15 67.7869 27.934 67.7869 43.8889V63.8889H119.426V69.4445H44.836C28.358 69.4445 15 82.3785 15 98.3333V141.667C15 157.622 28.358 170.555 44.836 170.555H62.0492V146.111C62.0492 130.157 75.4073 117.222 91.8855 117.222H146.967C160.91 117.222 172.213 106.278 172.213 92.778V43.8889C172.213 27.934 158.855 15 142.377 15H97.623ZM90.738 50.5555C96.4418 50.5555 101.065 46.0784 101.065 40.5556C101.065 35.0327 96.4418 30.5555 90.738 30.5555C85.0335 30.5555 80.4098 35.0327 80.4098 40.5556C80.4098 46.0784 85.0335 50.5555 90.738 50.5555Z" fill="url(#paint0_linear_58_145)"/>
<path fill-rule="evenodd" clip-rule="evenodd" d="M142.375 225.001C158.854 225.001 172.212 212.067 172.212 196.112V176.112H120.572V170.557H195.163C211.641 170.557 224.998 157.622 224.998 141.667V98.334C224.998 82.3792 211.641 69.4453 195.163 69.4453H177.949V93.8895C177.949 109.845 164.591 122.779 148.114 122.779H93.0315C79.0882 122.779 67.7856 133.723 67.7856 147.223V196.112C67.7856 212.067 81.144 225.001 97.6215 225.001H142.375ZM149.261 189.445C143.557 189.445 138.933 193.922 138.933 199.445C138.933 204.968 143.557 209.445 149.261 209.445C154.965 209.445 159.589 204.968 159.589 199.445C159.589 193.922 154.965 189.445 149.261 189.445Z" fill="url(#paint1_linear_58_145)"/>
<path d="M282.276 234.909V84.9091H303.014V102.594H304.79C306.021 100.321 307.796 97.6932 310.116 94.7102C312.437 91.7273 315.656 89.1231 319.776 86.8977C323.895 84.625 329.34 83.4886 336.111 83.4886C344.918 83.4886 352.777 85.714 359.69 90.1648C366.603 94.6155 372.025 101.031 375.955 109.412C379.932 117.793 381.92 127.878 381.92 139.668C381.92 151.457 379.955 161.566 376.026 169.994C372.096 178.375 366.698 184.838 359.832 189.384C352.967 193.882 345.131 196.131 336.324 196.131C329.695 196.131 324.274 195.018 320.06 192.793C315.893 190.567 312.626 187.963 310.259 184.98C307.891 181.997 306.068 179.346 304.79 177.026H303.511V234.909H282.276ZM303.085 139.455C303.085 147.125 304.198 153.848 306.423 159.625C308.649 165.402 311.868 169.923 316.082 173.19C320.296 176.41 325.457 178.02 331.565 178.02C337.91 178.02 343.213 176.339 347.474 172.977C351.736 169.568 354.955 164.952 357.134 159.128C359.359 153.304 360.472 146.746 360.472 139.455C360.472 132.258 359.383 125.795 357.205 120.065C355.074 114.336 351.854 109.814 347.545 106.5C343.284 103.186 337.957 101.528 331.565 101.528C325.41 101.528 320.202 103.115 315.94 106.287C311.726 109.459 308.53 113.886 306.352 119.568C304.174 125.25 303.085 131.879 303.085 139.455ZM415.425 234.909C412.253 234.909 409.365 234.649 406.761 234.128C404.156 233.654 402.215 233.134 400.937 232.565L406.05 215.165C409.933 216.206 413.389 216.656 416.42 216.514C419.45 216.372 422.125 215.236 424.445 213.105C426.813 210.974 428.896 207.494 430.695 202.665L433.323 195.42L393.408 84.9091H416.136L443.763 169.568H444.9L472.528 84.9091H495.326L450.369 208.56C448.285 214.241 445.634 219.047 442.414 222.977C439.194 226.955 435.359 229.938 430.908 231.926C426.458 233.915 421.297 234.909 415.425 234.909ZM566.207 84.9091V101.955H506.619V84.9091H566.207ZM522.599 58.7727H543.835V161.969C543.835 166.088 544.45 169.189 545.681 171.273C546.912 173.309 548.498 174.705 550.44 175.463C552.428 176.173 554.583 176.528 556.903 176.528C558.607 176.528 560.099 176.41 561.377 176.173C562.656 175.937 563.65 175.747 564.36 175.605L568.195 193.148C566.964 193.621 565.212 194.095 562.94 194.568C560.667 195.089 557.826 195.373 554.417 195.42C548.83 195.515 543.621 194.521 538.792 192.438C533.962 190.354 530.056 187.134 527.073 182.778C524.09 178.422 522.599 172.954 522.599 166.372V58.7727ZM613.277 129.227V194H592.041V48.5455H612.993V102.665H614.342C616.899 96.7936 620.805 92.1297 626.061 88.6733C631.317 85.2169 638.182 83.4886 646.658 83.4886C654.139 83.4886 660.673 85.0275 666.26 88.1051C671.894 91.1828 676.25 95.7756 679.328 101.884C682.453 107.944 684.016 115.52 684.016 124.611V194H662.78V127.168C662.78 119.166 660.72 112.963 656.601 108.56C652.482 104.109 646.752 101.884 639.413 101.884C634.394 101.884 629.896 102.949 625.919 105.08C621.989 107.21 618.888 110.335 616.615 114.455C614.39 118.527 613.277 123.451 613.277 129.227ZM758.305 196.202C748.078 196.202 739.153 193.858 731.53 189.17C723.907 184.483 717.988 177.925 713.774 169.497C709.56 161.069 707.453 151.221 707.453 139.952C707.453 128.635 709.56 118.74 713.774 110.264C717.988 101.789 723.907 95.2074 731.53 90.5199C739.153 85.8324 748.078 83.4886 758.305 83.4886C768.533 83.4886 777.458 85.8324 785.081 90.5199C792.704 95.2074 798.623 101.789 802.837 110.264C807.051 118.74 809.158 128.635 809.158 139.952C809.158 151.221 807.051 161.069 802.837 169.497C798.623 177.925 792.704 184.483 785.081 189.17C777.458 193.858 768.533 196.202 758.305 196.202ZM758.376 178.375C765.005 178.375 770.498 176.623 774.854 173.119C779.21 169.616 782.429 164.952 784.513 159.128C786.643 153.304 787.709 146.888 787.709 139.881C787.709 132.92 786.643 126.528 784.513 120.705C782.429 114.833 779.21 110.122 774.854 106.571C770.498 103.02 765.005 101.244 758.376 101.244C751.7 101.244 746.161 103.02 741.757 106.571C737.401 110.122 734.158 114.833 732.027 120.705C729.944 126.528 728.902 132.92 728.902 139.881C728.902 146.888 729.944 153.304 732.027 159.128C734.158 164.952 737.401 169.616 741.757 173.119C746.161 176.623 751.7 178.375 758.376 178.375ZM854.097 129.227V194H832.862V84.9091H853.245V102.665H854.594C857.104 96.8883 861.034 92.2481 866.384 88.7443C871.782 85.2405 878.576 83.4886 886.768 83.4886C894.201 83.4886 900.712 85.0511 906.299 88.1761C911.886 91.2538 916.219 95.8466 919.296 101.955C922.374 108.062 923.913 115.615 923.913 124.611V194H902.677V127.168C902.677 119.26 900.617 113.081 896.498 108.631C892.379 104.133 886.72 101.884 879.523 101.884C874.599 101.884 870.219 102.949 866.384 105.08C862.596 107.21 859.59 110.335 857.364 114.455C855.186 118.527 854.097 123.451 854.097 129.227Z" fill="black"/>
<defs>
<linearGradient id="paint0_linear_58_145" x1="93.6067" y1="15" x2="93.6067" y2="170.555" gradientUnits="userSpaceOnUse">
<stop stop-color="#327EBD"/>
<stop offset="1" stop-color="#1565A7"/>
</linearGradient>
<linearGradient id="paint1_linear_58_145" x1="146.392" y1="69.4453" x2="146.392" y2="225.001" gradientUnits="userSpaceOnUse">
<stop stop-color="#FFDA4B"/>
<stop offset="1" stop-color="#F9C600"/>
</linearGradient>
</defs>
</svg>
