<svg width="820" height="240" viewBox="0 0 820 240" fill="none" xmlns="http://www.w3.org/2000/svg">
<path d="M163.918 119.976C163.918 106.735 152.848 96 139.19 96C125.534 96 114.461 106.735 114.461 119.976C114.461 133.218 125.534 143.953 139.19 143.953C152.848 143.953 163.918 133.218 163.918 119.976Z" fill="#53C1DE"/>
<path fill-rule="evenodd" clip-rule="evenodd" d="M218.773 75.2649C223.995 54.6903 230.559 16.5367 207.419 3.60147C184.387 -9.2774 154.416 15.4009 138.59 30.214C122.81 15.5485 91.9966 -9.02429 68.8766 3.95205C45.8539 16.8741 52.9536 54.3951 58.2914 75.0988C36.8152 81.0129 0 93.7514 0 119.778C0 145.73 36.7769 159.589 58.126 165.498C52.7684 186.316 46.0242 223.301 69.0763 236.194C92.2828 249.168 123 225.18 138.973 210.205C154.901 225.105 184.584 249.25 207.62 236.321C230.729 223.35 224.71 185.708 219.372 164.885C240.067 158.963 276.923 145.406 276.923 119.778C276.923 94.0015 239.91 81.1597 218.773 75.2649ZM216.15 153.849C212.645 143.092 207.914 131.652 202.127 119.835C207.651 108.296 212.198 97.0043 215.605 86.316C231.101 90.672 265.094 100.627 265.094 119.778C265.094 139.108 232.473 149.157 216.15 153.849ZM201.692 226.394C184.505 236.04 158.973 212.95 147.21 201.978C155.014 193.702 162.812 184.082 170.423 173.399C183.811 172.248 196.458 170.365 207.929 167.794C211.686 182.524 218.956 216.704 201.692 226.394ZM74.9873 226.256C57.7978 216.646 65.6546 183.642 69.596 168.307C80.9385 170.741 93.4948 172.491 106.914 173.546C114.575 183.999 122.599 193.607 130.686 202.022C120.695 211.392 92.2569 235.911 74.9873 226.256ZM11.8291 119.778C11.8291 100.375 45.6191 90.492 61.4681 86.1471C64.9339 97.0754 69.4795 108.502 74.9652 120.057C69.4085 131.784 64.7979 143.392 61.3002 154.449C46.1879 150.255 11.8291 139.192 11.8291 119.778ZM74.8034 13.8788C92.0631 4.19224 118.843 27.783 130.301 38.4012C122.256 46.7773 114.306 56.3132 106.71 66.7061C93.6868 67.8766 81.2192 69.756 69.7578 72.2741C65.4577 55.5758 57.5623 23.555 74.8034 13.8788ZM178.886 79.1732C187.722 80.2541 196.187 81.6923 204.136 83.4517C201.75 90.8677 198.775 98.6224 195.272 106.572C190.194 97.2304 184.744 88.0763 178.886 79.1732ZM138.594 46.5978C144.05 52.3289 149.514 58.7289 154.89 65.6723C143.986 65.172 133.064 65.1701 122.16 65.6649C127.541 58.786 133.052 52.3955 138.594 46.5978ZM81.7523 106.564C78.3073 98.6418 75.3598 90.8529 72.9528 83.3308C80.854 81.6166 89.28 80.2154 98.0585 79.152C92.184 88.0357 86.7425 97.1861 81.7523 106.564ZM98.3105 161.222C89.2422 160.241 80.6886 158.91 72.7898 157.243C75.2348 149.589 78.2472 141.632 81.7658 133.54C86.8246 143.015 92.3492 152.254 98.3105 161.222ZM138.921 193.768C133.314 187.902 127.722 181.413 122.26 174.435C133.226 174.852 144.213 174.853 155.178 174.378C149.786 181.484 144.341 187.982 138.921 193.768ZM195.385 133.128C199.086 141.308 202.206 149.222 204.685 156.747C196.655 158.524 187.986 159.954 178.853 161.017C184.754 151.945 190.291 142.649 195.385 133.128ZM163.821 162.407C147.047 163.569 130.169 163.556 113.389 162.502C103.854 148.998 95.3668 134.797 88.0403 120.054C95.3317 105.341 103.758 91.1668 113.247 77.6843C130.038 76.4538 146.934 76.4501 163.725 77.6917C173.133 91.1732 181.546 105.31 189.006 119.89C181.635 134.596 173.165 148.798 163.821 162.407ZM201.51 13.5378C218.775 23.1927 211.09 57.4824 207.318 72.3932C195.83 69.8224 183.354 67.9098 170.292 66.7209C162.682 56.2157 154.798 46.6632 146.884 38.3953C158.488 27.5484 184.413 3.97743 201.51 13.5378Z" fill="#53C1DE"/>
<path d="M311.276 194V84.9091H331.801V102.239H332.938C334.926 96.3674 338.43 91.7509 343.449 88.3892C348.515 84.9801 354.244 83.2756 360.636 83.2756C361.962 83.2756 363.525 83.3229 365.324 83.4176C367.17 83.5123 368.615 83.6307 369.656 83.7727V104.085C368.804 103.848 367.289 103.588 365.111 103.304C362.933 102.973 360.755 102.807 358.577 102.807C353.558 102.807 349.083 103.872 345.153 106.003C341.271 108.086 338.193 110.998 335.92 114.739C333.648 118.432 332.511 122.646 332.511 127.381V194H311.276ZM431.144 196.202C420.396 196.202 411.139 193.905 403.374 189.312C395.656 184.672 389.691 178.162 385.477 169.781C381.31 161.353 379.227 151.481 379.227 140.165C379.227 128.991 381.31 119.142 385.477 110.619C389.691 102.097 395.562 95.4441 403.09 90.6619C410.666 85.8797 419.52 83.4886 429.653 83.4886C435.808 83.4886 441.774 84.5066 447.55 86.5426C453.327 88.5786 458.512 91.7746 463.104 96.1307C467.697 100.487 471.319 106.145 473.971 113.105C476.622 120.018 477.948 128.422 477.948 138.318V145.847H391.229V129.938H457.138C457.138 124.35 456.002 119.402 453.729 115.094C451.457 110.738 448.261 107.305 444.141 104.795C440.069 102.286 435.287 101.031 429.795 101.031C423.829 101.031 418.621 102.499 414.17 105.435C409.766 108.323 406.357 112.111 403.942 116.798C401.575 121.438 400.391 126.481 400.391 131.926V144.355C400.391 151.647 401.67 157.849 404.227 162.963C406.831 168.077 410.453 171.983 415.093 174.682C419.733 177.333 425.155 178.659 431.357 178.659C435.382 178.659 439.051 178.091 442.366 176.955C445.68 175.771 448.545 174.019 450.96 171.699C453.374 169.379 455.221 166.514 456.499 163.105L476.599 166.727C474.989 172.646 472.101 177.83 467.934 182.281C463.815 186.685 458.63 190.117 452.38 192.58C446.177 194.994 439.099 196.202 431.144 196.202ZM533.257 196.415C526.344 196.415 520.094 195.136 514.507 192.58C508.92 189.975 504.493 186.211 501.226 181.287C498.006 176.363 496.396 170.326 496.396 163.176C496.396 157.021 497.58 151.955 499.947 147.977C502.315 144 505.511 140.851 509.536 138.531C513.56 136.211 518.058 134.459 523.03 133.276C528.001 132.092 533.068 131.192 538.229 130.577C544.763 129.819 550.066 129.204 554.138 128.73C558.21 128.209 561.169 127.381 563.016 126.244C564.862 125.108 565.786 123.261 565.786 120.705V120.207C565.786 114.005 564.034 109.199 560.53 105.79C557.073 102.381 551.912 100.676 545.047 100.676C537.897 100.676 532.263 102.262 528.143 105.435C524.071 108.56 521.254 112.04 519.692 115.875L499.734 111.33C502.102 104.701 505.558 99.3504 510.104 95.2784C514.696 91.1591 519.976 88.1761 525.942 86.3295C531.908 84.4356 538.181 83.4886 544.763 83.4886C549.119 83.4886 553.735 84.0095 558.612 85.0511C563.536 86.0455 568.129 87.892 572.391 90.5909C576.699 93.2898 580.227 97.1487 582.973 102.168C585.719 107.139 587.092 113.602 587.092 121.557V194H566.354V179.085H565.501C564.128 181.831 562.069 184.53 559.322 187.182C556.576 189.833 553.049 192.035 548.74 193.787C544.431 195.539 539.27 196.415 533.257 196.415ZM537.874 179.369C543.745 179.369 548.764 178.209 552.93 175.889C557.144 173.569 560.34 170.539 562.518 166.798C564.744 163.01 565.857 158.962 565.857 154.653V140.591C565.099 141.348 563.631 142.059 561.453 142.722C559.322 143.337 556.884 143.882 554.138 144.355C551.392 144.781 548.716 145.184 546.112 145.562C543.508 145.894 541.33 146.178 539.578 146.415C535.459 146.936 531.695 147.812 528.286 149.043C524.924 150.274 522.225 152.049 520.189 154.369C518.2 156.642 517.206 159.672 517.206 163.46C517.206 168.716 519.147 172.693 523.03 175.392C526.912 178.044 531.86 179.369 537.874 179.369ZM661.329 196.202C650.77 196.202 641.679 193.811 634.056 189.028C626.48 184.199 620.656 177.546 616.585 169.071C612.513 160.596 610.477 150.889 610.477 139.952C610.477 128.872 612.56 119.095 616.727 110.619C620.893 102.097 626.764 95.4441 634.34 90.6619C641.916 85.8797 650.841 83.4886 661.116 83.4886C669.402 83.4886 676.788 85.0275 683.275 88.1051C689.762 91.1354 694.994 95.3968 698.971 100.889C702.996 106.382 705.387 112.797 706.144 120.136H685.477C684.34 115.023 681.736 110.619 677.664 106.926C673.639 103.233 668.242 101.386 661.471 101.386C655.552 101.386 650.368 102.949 645.917 106.074C641.513 109.152 638.081 113.555 635.619 119.284C633.156 124.966 631.925 131.689 631.925 139.455C631.925 147.409 633.133 154.275 635.548 160.051C637.962 165.828 641.371 170.302 645.775 173.474C650.226 176.647 655.458 178.233 661.471 178.233C665.496 178.233 669.141 177.499 672.408 176.031C675.723 174.516 678.493 172.362 680.718 169.568C682.991 166.775 684.577 163.413 685.477 159.483H706.144C705.387 166.538 703.09 172.835 699.255 178.375C695.42 183.915 690.282 188.271 683.843 191.443C677.451 194.616 669.946 196.202 661.329 196.202ZM779.777 84.9091V101.955H720.189V84.9091H779.777ZM736.169 58.7727H757.405V161.969C757.405 166.088 758.02 169.189 759.251 171.273C760.482 173.309 762.069 174.705 764.01 175.463C765.999 176.173 768.153 176.528 770.473 176.528C772.178 176.528 773.669 176.41 774.947 176.173C776.226 175.937 777.22 175.747 777.93 175.605L781.766 193.148C780.535 193.621 778.783 194.095 776.51 194.568C774.237 195.089 771.396 195.373 767.987 195.42C762.4 195.515 757.192 194.521 752.362 192.438C747.533 190.354 743.626 187.134 740.643 182.778C737.661 178.422 736.169 172.954 736.169 166.372V58.7727Z" fill="black"/>
</svg>
