<svg width="1200" height="240" viewBox="0 0 1200 240" fill="none" xmlns="http://www.w3.org/2000/svg">
<g clip-path="url(#clip0_56_26)">
<path d="M135.308 234.232C129.235 241.881 116.921 237.69 116.775 227.924L114.635 85.0898H210.677C228.072 85.0898 237.774 105.182 226.957 118.806L135.308 234.232Z" fill="url(#paint0_linear_56_26)"/>
<path d="M135.308 234.232C129.235 241.881 116.921 237.69 116.775 227.924L114.635 85.0898H210.677C228.072 85.0898 237.774 105.182 226.957 118.806L135.308 234.232Z" fill="url(#paint1_linear_56_26)" fill-opacity="0.2"/>
<path d="M96.2484 4.39934C102.322 -3.24965 114.636 0.941444 114.782 10.7072L115.72 153.542H20.8801C3.48387 153.542 -6.21836 133.449 4.59917 119.825L96.2484 4.39934Z" fill="#3ECF8E"/>
</g>
<path d="M328.023 111.543L308.776 114.952C307.971 112.49 306.692 110.146 304.94 107.92C303.236 105.695 300.916 103.872 297.98 102.452C295.045 101.031 291.375 100.321 286.972 100.321C280.958 100.321 275.939 101.67 271.915 104.369C267.89 107.021 265.878 110.454 265.878 114.668C265.878 118.313 267.227 121.249 269.926 123.474C272.625 125.7 276.981 127.523 282.994 128.943L300.324 132.92C310.362 135.241 317.843 138.815 322.767 143.645C327.691 148.474 330.153 154.748 330.153 162.466C330.153 169 328.259 174.824 324.472 179.938C320.731 185.004 315.499 188.981 308.776 191.869C302.099 194.758 294.358 196.202 285.551 196.202C273.335 196.202 263.368 193.598 255.651 188.389C247.933 183.134 243.198 175.676 241.446 166.017L261.972 162.892C263.25 168.242 265.878 172.291 269.855 175.037C273.832 177.736 279.017 179.085 285.409 179.085C292.369 179.085 297.933 177.641 302.099 174.753C306.266 171.817 308.349 168.242 308.349 164.028C308.349 160.619 307.071 157.755 304.514 155.435C302.005 153.115 298.146 151.363 292.938 150.179L274.472 146.131C264.292 143.811 256.763 140.117 251.886 135.051C247.057 129.985 244.642 123.569 244.642 115.804C244.642 109.365 246.441 103.73 250.04 98.9006C253.638 94.071 258.61 90.3068 264.955 87.608C271.299 84.8617 278.567 83.4886 286.759 83.4886C298.548 83.4886 307.829 86.0455 314.599 91.1591C321.37 96.2254 325.845 103.02 328.023 111.543ZM422.607 148.759V84.9091H443.914V194H423.033V175.108H421.897C419.388 180.932 415.363 185.785 409.823 189.668C404.331 193.503 397.489 195.42 389.298 195.42C382.29 195.42 376.087 193.882 370.69 190.804C365.339 187.679 361.125 183.062 358.048 176.955C355.017 170.847 353.502 163.295 353.502 154.298V84.9091H374.738V151.741C374.738 159.175 376.798 165.094 380.917 169.497C385.036 173.901 390.387 176.102 396.968 176.102C400.945 176.102 404.899 175.108 408.829 173.119C412.806 171.131 416.097 168.124 418.701 164.099C421.353 160.075 422.655 154.961 422.607 148.759ZM472.447 234.909V84.9091H493.186V102.594H494.962C496.193 100.321 497.968 97.6932 500.288 94.7102C502.608 91.7273 505.828 89.1231 509.947 86.8977C514.067 84.625 519.512 83.4886 526.283 83.4886C535.089 83.4886 542.949 85.714 549.862 90.1648C556.775 94.6155 562.196 101.031 566.126 109.412C570.104 117.793 572.092 127.878 572.092 139.668C572.092 151.457 570.127 161.566 566.197 169.994C562.268 178.375 556.87 184.838 550.004 189.384C543.139 193.882 535.303 196.131 526.496 196.131C519.867 196.131 514.446 195.018 510.232 192.793C506.065 190.567 502.798 187.963 500.43 184.98C498.063 181.997 496.24 179.346 494.962 177.026H493.683V234.909H472.447ZM493.257 139.455C493.257 147.125 494.37 153.848 496.595 159.625C498.821 165.402 502.04 169.923 506.254 173.19C510.468 176.41 515.629 178.02 521.737 178.02C528.082 178.02 533.385 176.339 537.646 172.977C541.908 169.568 545.127 164.952 547.305 159.128C549.531 153.304 550.643 146.746 550.643 139.455C550.643 132.258 549.554 125.795 547.376 120.065C545.246 114.336 542.026 109.814 537.717 106.5C533.456 103.186 528.129 101.528 521.737 101.528C515.582 101.528 510.374 103.115 506.112 106.287C501.898 109.459 498.702 113.886 496.524 119.568C494.346 125.25 493.257 131.879 493.257 139.455ZM627.632 196.415C620.719 196.415 614.469 195.136 608.882 192.58C603.295 189.975 598.868 186.211 595.601 181.287C592.381 176.363 590.771 170.326 590.771 163.176C590.771 157.021 591.955 151.955 594.322 147.977C596.69 144 599.886 140.851 603.911 138.531C607.935 136.211 612.433 134.459 617.405 133.276C622.376 132.092 627.443 131.192 632.604 130.577C639.138 129.819 644.441 129.204 648.513 128.73C652.585 128.209 655.544 127.381 657.391 126.244C659.237 125.108 660.161 123.261 660.161 120.705V120.207C660.161 114.005 658.409 109.199 654.905 105.79C651.448 102.381 646.287 100.676 639.422 100.676C632.272 100.676 626.638 102.262 622.518 105.435C618.446 108.56 615.629 112.04 614.067 115.875L594.109 111.33C596.477 104.701 599.933 99.3504 604.479 95.2784C609.071 91.1591 614.351 88.1761 620.317 86.3295C626.283 84.4356 632.556 83.4886 639.138 83.4886C643.494 83.4886 648.11 84.0095 652.987 85.0511C657.911 86.0455 662.504 87.892 666.766 90.5909C671.074 93.2898 674.602 97.1487 677.348 102.168C680.094 107.139 681.467 113.602 681.467 121.557V194H660.729V179.085H659.876C658.503 181.831 656.444 184.53 653.697 187.182C650.951 189.833 647.424 192.035 643.115 193.787C638.806 195.539 633.645 196.415 627.632 196.415ZM632.249 179.369C638.12 179.369 643.139 178.209 647.305 175.889C651.519 173.569 654.715 170.539 656.893 166.798C659.119 163.01 660.232 158.962 660.232 154.653V140.591C659.474 141.348 658.006 142.059 655.828 142.722C653.697 143.337 651.259 143.882 648.513 144.355C645.767 144.781 643.091 145.184 640.487 145.562C637.883 145.894 635.705 146.178 633.953 146.415C629.834 146.936 626.07 147.812 622.661 149.043C619.299 150.274 616.6 152.049 614.564 154.369C612.575 156.642 611.581 159.672 611.581 163.46C611.581 168.716 613.522 172.693 617.405 175.392C621.287 178.044 626.235 179.369 632.249 179.369ZM711.457 194V48.5455H732.692V102.594H733.971C735.202 100.321 736.978 97.6932 739.298 94.7102C741.618 91.7273 744.837 89.1231 748.957 86.8977C753.076 84.625 758.521 83.4886 765.292 83.4886C774.099 83.4886 781.959 85.714 788.871 90.1648C795.784 94.6155 801.206 101.031 805.136 109.412C809.113 117.793 811.102 127.878 811.102 139.668C811.102 151.457 809.137 161.566 805.207 169.994C801.277 178.375 795.879 184.838 789.013 189.384C782.148 193.882 774.312 196.131 765.505 196.131C758.876 196.131 753.455 195.018 749.241 192.793C745.074 190.567 741.807 187.963 739.44 184.98C737.072 181.997 735.249 179.346 733.971 177.026H732.195V194H711.457ZM732.266 139.455C732.266 147.125 733.379 153.848 735.604 159.625C737.83 165.402 741.049 169.923 745.263 173.19C749.478 176.41 754.638 178.02 760.746 178.02C767.091 178.02 772.394 176.339 776.656 172.977C780.917 169.568 784.137 164.952 786.315 159.128C788.54 153.304 789.653 146.746 789.653 139.455C789.653 132.258 788.564 125.795 786.386 120.065C784.255 114.336 781.035 109.814 776.727 106.5C772.465 103.186 767.138 101.528 760.746 101.528C754.591 101.528 749.383 103.115 745.121 106.287C740.907 109.459 737.711 113.886 735.533 119.568C733.355 125.25 732.266 131.879 732.266 139.455ZM866.695 196.415C859.782 196.415 853.532 195.136 847.945 192.58C842.357 189.975 837.93 186.211 834.663 181.287C831.444 176.363 829.834 170.326 829.834 163.176C829.834 157.021 831.018 151.955 833.385 147.977C835.752 144 838.948 140.851 842.973 138.531C846.998 136.211 851.496 134.459 856.467 133.276C861.439 132.092 866.505 131.192 871.666 130.577C878.2 129.819 883.503 129.204 887.575 128.73C891.647 128.209 894.607 127.381 896.453 126.244C898.3 125.108 899.223 123.261 899.223 120.705V120.207C899.223 114.005 897.471 109.199 893.967 105.79C890.511 102.381 885.35 100.676 878.484 100.676C871.335 100.676 865.7 102.262 861.581 105.435C857.509 108.56 854.692 112.04 853.129 115.875L833.172 111.33C835.539 104.701 838.996 99.3504 843.541 95.2784C848.134 91.1591 853.413 88.1761 859.379 86.3295C865.345 84.4356 871.619 83.4886 878.2 83.4886C882.556 83.4886 887.173 84.0095 892.05 85.0511C896.974 86.0455 901.567 87.892 905.828 90.5909C910.137 93.2898 913.664 97.1487 916.411 102.168C919.157 107.139 920.53 113.602 920.53 121.557V194H899.791V179.085H898.939C897.566 181.831 895.506 184.53 892.76 187.182C890.014 189.833 886.486 192.035 882.178 193.787C877.869 195.539 872.708 196.415 866.695 196.415ZM871.311 179.369C877.182 179.369 882.201 178.209 886.368 175.889C890.582 173.569 893.778 170.539 895.956 166.798C898.181 163.01 899.294 158.962 899.294 154.653V140.591C898.536 141.348 897.069 142.059 894.891 142.722C892.76 143.337 890.321 143.882 887.575 144.355C884.829 144.781 882.154 145.184 879.55 145.562C876.946 145.894 874.768 146.178 873.016 146.415C868.896 146.936 865.132 147.812 861.723 149.043C858.361 150.274 855.662 152.049 853.626 154.369C851.638 156.642 850.643 159.672 850.643 163.46C850.643 168.716 852.585 172.693 856.467 175.392C860.35 178.044 865.298 179.369 871.311 179.369ZM1030.56 111.543L1011.31 114.952C1010.51 112.49 1009.23 110.146 1007.48 107.92C1005.77 105.695 1003.45 103.872 1000.52 102.452C997.584 101.031 993.914 100.321 989.511 100.321C983.497 100.321 978.478 101.67 974.454 104.369C970.429 107.021 968.417 110.454 968.417 114.668C968.417 118.313 969.766 121.249 972.465 123.474C975.164 125.7 979.52 127.523 985.533 128.943L1002.86 132.92C1012.9 135.241 1020.38 138.815 1025.31 143.645C1030.23 148.474 1032.69 154.748 1032.69 162.466C1032.69 169 1030.8 174.824 1027.01 179.938C1023.27 185.004 1018.04 188.981 1011.31 191.869C1004.64 194.758 996.897 196.202 988.09 196.202C975.874 196.202 965.907 193.598 958.19 188.389C950.472 183.134 945.737 175.676 943.985 166.017L964.511 162.892C965.789 168.242 968.417 172.291 972.394 175.037C976.371 177.736 981.556 179.085 987.948 179.085C994.908 179.085 1000.47 177.641 1004.64 174.753C1008.81 171.817 1010.89 168.242 1010.89 164.028C1010.89 160.619 1009.61 157.755 1007.05 155.435C1004.54 153.115 1000.68 151.363 995.477 150.179L977.011 146.131C966.831 143.811 959.302 140.117 954.425 135.051C949.596 129.985 947.181 123.569 947.181 115.804C947.181 109.365 948.98 103.73 952.579 98.9006C956.177 94.071 961.149 90.3068 967.494 87.608C973.838 84.8617 981.106 83.4886 989.298 83.4886C1001.09 83.4886 1010.37 86.0455 1017.14 91.1591C1023.91 96.2254 1028.38 103.02 1030.56 111.543ZM1103.06 196.202C1092.31 196.202 1083.05 193.905 1075.29 189.312C1067.57 184.672 1061.6 178.162 1057.39 169.781C1053.22 161.353 1051.14 151.481 1051.14 140.165C1051.14 128.991 1053.22 119.142 1057.39 110.619C1061.6 102.097 1067.48 95.4441 1075 90.6619C1082.58 85.8797 1091.43 83.4886 1101.57 83.4886C1107.72 83.4886 1113.69 84.5066 1119.46 86.5426C1125.24 88.5786 1130.43 91.7746 1135.02 96.1307C1139.61 100.487 1143.23 106.145 1145.88 113.105C1148.54 120.018 1149.86 128.422 1149.86 138.318V145.847H1063.14V129.938H1129.05C1129.05 124.35 1127.92 119.402 1125.64 115.094C1123.37 110.738 1120.17 107.305 1116.06 104.795C1111.98 102.286 1107.2 101.031 1101.71 101.031C1095.74 101.031 1090.53 102.499 1086.08 105.435C1081.68 108.323 1078.27 112.111 1075.86 116.798C1073.49 121.438 1072.31 126.481 1072.31 131.926V144.355C1072.31 151.647 1073.58 157.849 1076.14 162.963C1078.74 168.077 1082.37 171.983 1087.01 174.682C1091.65 177.333 1097.07 178.659 1103.27 178.659C1107.3 178.659 1110.97 178.091 1114.28 176.955C1117.59 175.771 1120.46 174.019 1122.87 171.699C1125.29 169.379 1127.13 166.514 1128.41 163.105L1148.51 166.727C1146.9 172.646 1144.01 177.83 1139.85 182.281C1135.73 186.685 1130.54 190.117 1124.29 192.58C1118.09 194.994 1111.01 196.202 1103.06 196.202Z" fill="black"/>
<defs>
<linearGradient id="paint0_linear_56_26" x1="114.635" y1="116.76" x2="199.993" y2="152.559" gradientUnits="userSpaceOnUse">
<stop stop-color="#249361"/>
<stop offset="1" stop-color="#3ECF8E"/>
</linearGradient>
<linearGradient id="paint1_linear_56_26" x1="76.7912" y1="64.9453" x2="115.719" y2="138.225" gradientUnits="userSpaceOnUse">
<stop/>
<stop offset="1" stop-opacity="0"/>
</linearGradient>
<clipPath id="clip0_56_26">
<rect width="231.504" height="240" fill="white"/>
</clipPath>
</defs>
</svg>
