<svg width="1361" height="240" viewBox="0 0 1361 240" fill="none" xmlns="http://www.w3.org/2000/svg">
<path d="M337.199 84.9091V101.955H277.611V84.9091H337.199ZM293.591 58.7727H314.827V161.969C314.827 166.088 315.442 169.189 316.673 171.273C317.904 173.309 319.491 174.705 321.432 175.463C323.42 176.173 325.575 176.528 327.895 176.528C329.599 176.528 331.091 176.41 332.369 176.173C333.648 175.937 334.642 175.747 335.352 175.605L339.188 193.148C337.956 193.621 336.205 194.095 333.932 194.568C331.659 195.089 328.818 195.373 325.409 195.42C319.822 195.515 314.614 194.521 309.784 192.438C304.955 190.354 301.048 187.134 298.065 182.778C295.082 178.422 293.591 172.954 293.591 166.372V58.7727ZM392.437 196.415C385.524 196.415 379.274 195.136 373.687 192.58C368.1 189.975 363.673 186.211 360.406 181.287C357.186 176.363 355.576 170.326 355.576 163.176C355.576 157.021 356.76 151.955 359.127 147.977C361.495 144 364.691 140.851 368.715 138.531C372.74 136.211 377.238 134.459 382.21 133.276C387.181 132.092 392.247 131.192 397.408 130.577C403.942 129.819 409.246 129.204 413.317 128.73C417.389 128.209 420.349 127.381 422.195 126.244C424.042 125.108 424.965 123.261 424.965 120.705V120.207C424.965 114.005 423.213 109.199 419.71 105.79C416.253 102.381 411.092 100.676 404.227 100.676C397.077 100.676 391.442 102.262 387.323 105.435C383.251 108.56 380.434 112.04 378.871 115.875L358.914 111.33C361.281 104.701 364.738 99.3504 369.283 95.2784C373.876 91.1591 379.156 88.1761 385.121 86.3295C391.087 84.4356 397.361 83.4886 403.942 83.4886C408.299 83.4886 412.915 84.0095 417.792 85.0511C422.716 86.0455 427.309 87.892 431.57 90.5909C435.879 93.2898 439.406 97.1487 442.153 102.168C444.899 107.139 446.272 113.602 446.272 121.557V194H425.533V179.085H424.681C423.308 181.831 421.248 184.53 418.502 187.182C415.756 189.833 412.228 192.035 407.92 193.787C403.611 195.539 398.45 196.415 392.437 196.415ZM397.053 179.369C402.924 179.369 407.943 178.209 412.11 175.889C416.324 173.569 419.52 170.539 421.698 166.798C423.924 163.01 425.036 158.962 425.036 154.653V140.591C424.279 141.348 422.811 142.059 420.633 142.722C418.502 143.337 416.064 143.882 413.317 144.355C410.571 144.781 407.896 145.184 405.292 145.562C402.688 145.894 400.51 146.178 398.758 146.415C394.638 146.936 390.874 147.812 387.465 149.043C384.103 150.274 381.405 152.049 379.369 154.369C377.38 156.642 376.386 159.672 376.386 163.46C376.386 168.716 378.327 172.693 382.21 175.392C386.092 178.044 391.04 179.369 397.053 179.369ZM474.557 194V84.9091H495.793V194H474.557ZM485.281 68.0767C481.588 68.0767 478.416 66.8456 475.764 64.3835C473.16 61.874 471.858 58.8911 471.858 55.4347C471.858 51.9309 473.16 48.9479 475.764 46.4858C478.416 43.9763 481.588 42.7216 485.281 42.7216C488.974 42.7216 492.123 43.9763 494.727 46.4858C497.379 48.9479 498.705 51.9309 498.705 55.4347C498.705 58.8911 497.379 61.874 494.727 64.3835C492.123 66.8456 488.974 68.0767 485.281 68.0767ZM545.597 48.5455V194H524.362V48.5455H545.597ZM597.817 194L565.714 84.9091H587.661L609.038 165.023H610.104L631.553 84.9091H653.499L674.805 164.668H675.871L697.107 84.9091H719.053L687.021 194H665.359L643.2 115.236H641.567L619.408 194H597.817ZM739.205 194V84.9091H760.441V194H739.205ZM749.93 68.0767C746.237 68.0767 743.064 66.8456 740.413 64.3835C737.808 61.874 736.506 58.8911 736.506 55.4347C736.506 51.9309 737.808 48.9479 740.413 46.4858C743.064 43.9763 746.237 42.7216 749.93 42.7216C753.623 42.7216 756.772 43.9763 759.376 46.4858C762.027 48.9479 763.353 51.9309 763.353 55.4347C763.353 58.8911 762.027 61.874 759.376 64.3835C756.772 66.8456 753.623 68.0767 749.93 68.0767ZM810.246 129.227V194H789.01V84.9091H809.393V102.665H810.743C813.252 96.8883 817.182 92.2481 822.533 88.7443C827.93 85.2405 834.725 83.4886 842.916 83.4886C850.35 83.4886 856.86 85.0511 862.447 88.1761C868.035 91.2538 872.367 95.8466 875.445 101.955C878.522 108.062 880.061 115.615 880.061 124.611V194H858.825V127.168C858.825 119.26 856.766 113.081 852.646 108.631C848.527 104.133 842.869 101.884 835.672 101.884C830.748 101.884 826.368 102.949 822.533 105.08C818.745 107.21 815.738 110.335 813.513 114.455C811.335 118.527 810.246 123.451 810.246 129.227ZM949.379 196.131C940.572 196.131 932.713 193.882 925.8 189.384C918.934 184.838 913.536 178.375 909.607 169.994C905.724 161.566 903.783 151.457 903.783 139.668C903.783 127.878 905.748 117.793 909.678 109.412C913.655 101.031 919.1 94.6155 926.013 90.1648C932.926 85.714 940.762 83.4886 949.521 83.4886C956.292 83.4886 961.737 84.625 965.857 86.8977C970.023 89.1231 973.243 91.7273 975.516 94.7102C977.836 97.6932 979.635 100.321 980.913 102.594H982.192V48.5455H1003.43V194H982.689V177.026H980.913C979.635 179.346 977.788 181.997 975.374 184.98C973.006 187.963 969.739 190.567 965.572 192.793C961.406 195.018 956.008 196.131 949.379 196.131ZM954.067 178.02C960.175 178.02 965.336 176.41 969.55 173.19C973.811 169.923 977.031 165.402 979.209 159.625C981.434 153.848 982.547 147.125 982.547 139.455C982.547 131.879 981.458 125.25 979.28 119.568C977.102 113.886 973.906 109.459 969.692 106.287C965.478 103.115 960.269 101.528 954.067 101.528C947.675 101.528 942.348 103.186 938.087 106.5C933.825 109.814 930.606 114.336 928.428 120.065C926.297 125.795 925.232 132.258 925.232 139.455C925.232 146.746 926.321 153.304 928.499 159.128C930.677 164.952 933.896 169.568 938.158 172.977C942.466 176.339 947.769 178.02 954.067 178.02ZM1079.69 196.202C1069.13 196.202 1060.04 193.811 1052.42 189.028C1044.84 184.199 1039.02 177.546 1034.94 169.071C1030.87 160.596 1028.84 150.889 1028.84 139.952C1028.84 128.872 1030.92 119.095 1035.09 110.619C1039.25 102.097 1045.12 95.4441 1052.7 90.6619C1060.28 85.8797 1069.2 83.4886 1079.48 83.4886C1087.76 83.4886 1095.15 85.0275 1101.63 88.1051C1108.12 91.1354 1113.35 95.3968 1117.33 100.889C1121.35 106.382 1123.75 112.797 1124.5 120.136H1103.84C1102.7 115.023 1100.1 110.619 1096.02 106.926C1092 103.233 1086.6 101.386 1079.83 101.386C1073.91 101.386 1068.73 102.949 1064.28 106.074C1059.87 109.152 1056.44 113.555 1053.98 119.284C1051.52 124.966 1050.28 131.689 1050.28 139.455C1050.28 147.409 1051.49 154.275 1053.91 160.051C1056.32 165.828 1059.73 170.302 1064.13 173.474C1068.58 176.647 1073.82 178.233 1079.83 178.233C1083.85 178.233 1087.5 177.499 1090.77 176.031C1094.08 174.516 1096.85 172.362 1099.08 169.568C1101.35 166.775 1102.94 163.413 1103.84 159.483H1124.5C1123.75 166.538 1121.45 172.835 1117.61 178.375C1113.78 183.915 1108.64 188.271 1102.2 191.443C1095.81 194.616 1088.31 196.202 1079.69 196.202ZM1228.96 111.543L1209.71 114.952C1208.91 112.49 1207.63 110.146 1205.88 107.92C1204.17 105.695 1201.85 103.872 1198.92 102.452C1195.98 101.031 1192.31 100.321 1187.91 100.321C1181.9 100.321 1176.88 101.67 1172.85 104.369C1168.83 107.021 1166.82 110.454 1166.82 114.668C1166.82 118.313 1168.16 121.249 1170.86 123.474C1173.56 125.7 1177.92 127.523 1183.93 128.943L1201.26 132.92C1211.3 135.241 1218.78 138.815 1223.7 143.645C1228.63 148.474 1231.09 154.748 1231.09 162.466C1231.09 169 1229.2 174.824 1225.41 179.938C1221.67 185.004 1216.44 188.981 1209.71 191.869C1203.04 194.758 1195.3 196.202 1186.49 196.202C1174.27 196.202 1164.31 193.598 1156.59 188.389C1148.87 183.134 1144.14 175.676 1142.38 166.017L1162.91 162.892C1164.19 168.242 1166.82 172.291 1170.79 175.037C1174.77 177.736 1179.95 179.085 1186.35 179.085C1193.31 179.085 1198.87 177.641 1203.04 174.753C1207.2 171.817 1209.29 168.242 1209.29 164.028C1209.29 160.619 1208.01 157.755 1205.45 155.435C1202.94 153.115 1199.08 151.363 1193.88 150.179L1175.41 146.131C1165.23 143.811 1157.7 140.117 1152.82 135.051C1147.99 129.985 1145.58 123.569 1145.58 115.804C1145.58 109.365 1147.38 103.73 1150.98 98.9006C1154.58 94.071 1159.55 90.3068 1165.89 87.608C1172.24 84.8617 1179.5 83.4886 1187.7 83.4886C1199.49 83.4886 1208.77 86.0455 1215.54 91.1591C1222.31 96.2254 1226.78 103.02 1228.96 111.543ZM1336.19 111.543L1316.94 114.952C1316.13 112.49 1314.86 110.146 1313.1 107.92C1311.4 105.695 1309.08 103.872 1306.14 102.452C1303.21 101.031 1299.54 100.321 1295.14 100.321C1289.12 100.321 1284.1 101.67 1280.08 104.369C1276.05 107.021 1274.04 110.454 1274.04 114.668C1274.04 118.313 1275.39 121.249 1278.09 123.474C1280.79 125.7 1285.15 127.523 1291.16 128.943L1308.49 132.92C1318.53 135.241 1326.01 138.815 1330.93 143.645C1335.86 148.474 1338.32 154.748 1338.32 162.466C1338.32 169 1336.42 174.824 1332.64 179.938C1328.9 185.004 1323.66 188.981 1316.94 191.869C1310.26 194.758 1302.52 196.202 1293.72 196.202C1281.5 196.202 1271.53 193.598 1263.81 188.389C1256.1 183.134 1251.36 175.676 1249.61 166.017L1270.14 162.892C1271.41 168.242 1274.04 172.291 1278.02 175.037C1282 177.736 1287.18 179.085 1293.57 179.085C1300.53 179.085 1306.1 177.641 1310.26 174.753C1314.43 171.817 1316.51 168.242 1316.51 164.028C1316.51 160.619 1315.24 157.755 1312.68 155.435C1310.17 153.115 1306.31 151.363 1301.1 150.179L1282.64 146.131C1272.46 143.811 1264.93 140.117 1260.05 135.051C1255.22 129.985 1252.81 123.569 1252.81 115.804C1252.81 109.365 1254.61 103.73 1258.2 98.9006C1261.8 94.071 1266.77 90.3068 1273.12 87.608C1279.46 84.8617 1286.73 83.4886 1294.92 83.4886C1306.71 83.4886 1315.99 86.0455 1322.76 91.1591C1329.53 96.2254 1334.01 103.02 1336.19 111.543Z" fill="black"/>
<path d="M67.5 102.75C74.5 74.75 92 60.75 120 60.75C162 60.75 167.25 92.25 188.25 97.5C202.25 101 214.5 95.75 225 81.75C218 109.75 200.5 123.75 172.5 123.75C130.5 123.75 125.25 92.25 104.25 87C90.25 83.5 78 88.75 67.5 102.75ZM15 165.75C22 137.75 39.5 123.75 67.5 123.75C109.5 123.75 114.75 155.25 135.75 160.5C149.75 164 162 158.75 172.5 144.75C165.5 172.75 148 186.75 120 186.75C78 186.75 72.75 155.25 51.75 150C37.75 146.5 25.5 151.75 15 165.75Z" fill="#44A8B3"/>
</svg>
