<svg width="1273" height="240" viewBox="0 0 1273 240" fill="none" xmlns="http://www.w3.org/2000/svg">
<g clip-path="url(#clip0_57_76)">
<path d="M204 0H36C16.1178 0 0 16.1178 0 36V204C0 223.882 16.1178 240 36 240H204C223.882 240 240 223.882 240 204V36C240 16.1178 223.882 0 204 0Z" fill="#3178C6"/>
<path d="M109.219 133.126H139.219V113.907H55.3125V133.126H85.3125V218.907H109.219V133.126ZM148.594 214.22C152.391 216.188 157.031 217.641 162.188 218.626C167.344 219.61 172.969 220.079 178.594 220.079C184.219 220.079 189.375 219.563 194.531 218.485C199.688 217.407 203.906 215.626 207.656 213.329C211.453 210.845 214.688 207.704 216.562 203.485C218.438 199.266 219.891 194.579 219.891 188.485C219.891 184.22 219.234 180.516 217.969 177.235C216.703 173.954 214.875 171.141 212.344 168.798C209.953 166.313 207.188 164.11 203.906 162.235C200.625 160.36 196.875 158.391 192.656 156.61C189.563 155.345 187.031 154.126 184.219 152.907C181.781 151.688 179.672 150.47 178.125 149.251C176.391 147.985 175.078 146.673 174.141 145.313C173.203 143.907 172.734 142.36 172.734 140.626C172.734 139.032 173.152 137.579 174 136.266C174.848 134.954 176.016 133.876 177.516 132.938C179.016 132.001 180.891 131.298 183.141 130.782C185.344 130.266 187.781 130.032 190.641 130.032C192.609 130.032 194.672 130.177 196.734 130.473C198.891 130.768 201.094 131.223 203.297 131.832C205.5 132.441 207.656 133.191 209.859 134.129C211.922 135.066 213.844 136.145 215.484 137.363V115.332C211.922 113.973 207.984 112.941 203.766 112.285C199.547 111.629 194.859 111.301 189.234 111.301C183.609 111.301 178.453 111.91 173.297 113.082C168.141 114.254 163.922 116.129 160.172 118.707C156.375 121.238 153.609 124.332 151.266 128.551C149.063 132.488 147.984 136.988 147.984 142.613C147.984 149.645 150 155.738 154.078 160.426C158.109 165.582 164.391 169.332 172.359 173.082C175.594 174.395 178.453 175.707 181.266 176.973C184.078 178.238 186.422 179.551 188.297 180.91C190.313 182.27 191.906 183.77 192.984 185.363C194.156 186.957 194.766 188.832 194.766 190.988C194.766 192.488 194.4 193.895 193.688 195.207C192.975 196.52 191.859 197.645 190.359 198.582C188.859 199.52 187.031 200.27 184.734 200.832C182.531 201.348 180.047 201.629 176.766 201.629C171.609 201.629 166.453 200.738 161.766 198.957C156.609 197.176 151.922 194.504 148.594 191.72V214.22Z" fill="white"/>
</g>
<path d="M334.199 84.9091V101.955H274.611V84.9091H334.199ZM290.591 58.7727H311.827V161.969C311.827 166.088 312.442 169.189 313.673 171.273C314.904 173.309 316.491 174.705 318.432 175.463C320.42 176.173 322.575 176.528 324.895 176.528C326.599 176.528 328.091 176.41 329.369 176.173C330.648 175.937 331.642 175.747 332.352 175.605L336.188 193.148C334.956 193.621 333.205 194.095 330.932 194.568C328.659 195.089 325.818 195.373 322.409 195.42C316.822 195.515 311.614 194.521 306.784 192.438C301.955 190.354 298.048 187.134 295.065 182.778C292.082 178.422 290.591 172.954 290.591 166.372V58.7727ZM371.113 234.909C367.941 234.909 365.052 234.649 362.448 234.128C359.844 233.654 357.903 233.134 356.624 232.565L361.738 215.165C365.621 216.206 369.077 216.656 372.107 216.514C375.138 216.372 377.813 215.236 380.133 213.105C382.5 210.974 384.584 207.494 386.383 202.665L389.011 195.42L349.096 84.9091H371.823L399.451 169.568H400.587L428.215 84.9091H451.013L406.056 208.56C403.973 214.241 401.321 219.047 398.102 222.977C394.882 226.955 391.047 229.938 386.596 231.926C382.145 233.915 376.984 234.909 371.113 234.909ZM470.971 234.909V84.9091H491.71V102.594H493.485C494.716 100.321 496.492 97.6932 498.812 94.7102C501.132 91.7273 504.352 89.1231 508.471 86.8977C512.59 84.625 518.035 83.4886 524.806 83.4886C533.613 83.4886 541.473 85.714 548.386 90.1648C555.299 94.6155 560.72 101.031 564.65 109.412C568.627 117.793 570.616 127.878 570.616 139.668C570.616 151.457 568.651 161.566 564.721 169.994C560.791 178.375 555.393 184.838 548.528 189.384C541.662 193.882 533.826 196.131 525.019 196.131C518.39 196.131 512.969 195.018 508.755 192.793C504.588 190.567 501.321 187.963 498.954 184.98C496.586 181.997 494.763 179.346 493.485 177.026H492.207V234.909H470.971ZM491.781 139.455C491.781 147.125 492.893 153.848 495.119 159.625C497.344 165.402 500.564 169.923 504.778 173.19C508.992 176.41 514.153 178.02 520.261 178.02C526.605 178.02 531.908 176.339 536.17 172.977C540.431 169.568 543.651 164.952 545.829 159.128C548.054 153.304 549.167 146.746 549.167 139.455C549.167 132.258 548.078 125.795 545.9 120.065C543.769 114.336 540.549 109.814 536.241 106.5C531.979 103.186 526.653 101.528 520.261 101.528C514.105 101.528 508.897 103.115 504.636 106.287C500.422 109.459 497.226 113.886 495.048 119.568C492.87 125.25 491.781 131.879 491.781 139.455ZM641.425 196.202C630.677 196.202 621.421 193.905 613.656 189.312C605.938 184.672 599.972 178.162 595.758 169.781C591.591 161.353 589.508 151.481 589.508 140.165C589.508 128.991 591.591 119.142 595.758 110.619C599.972 102.097 605.843 95.4441 613.371 90.6619C620.947 85.8797 629.801 83.4886 639.934 83.4886C646.089 83.4886 652.055 84.5066 657.832 86.5426C663.608 88.5786 668.793 91.7746 673.386 96.1307C677.978 100.487 681.601 106.145 684.252 113.105C686.904 120.018 688.229 128.422 688.229 138.318V145.847H601.511V129.938H667.42C667.42 124.35 666.283 119.402 664.011 115.094C661.738 110.738 658.542 107.305 654.423 104.795C650.351 102.286 645.568 101.031 640.076 101.031C634.11 101.031 628.902 102.499 624.451 105.435C620.048 108.323 616.638 112.111 614.224 116.798C611.856 121.438 610.673 126.481 610.673 131.926V144.355C610.673 151.647 611.951 157.849 614.508 162.963C617.112 168.077 620.734 171.983 625.374 174.682C630.014 177.333 635.436 178.659 641.638 178.659C645.663 178.659 649.333 178.091 652.647 176.955C655.961 175.771 658.826 174.019 661.241 171.699C663.656 169.379 665.502 166.514 666.781 163.105L686.88 166.727C685.27 172.646 682.382 177.83 678.215 182.281C674.096 186.685 668.911 190.117 662.661 192.58C656.459 194.994 649.38 196.202 641.425 196.202ZM793.538 111.543L774.291 114.952C773.486 112.49 772.208 110.146 770.456 107.92C768.751 105.695 766.431 103.872 763.496 102.452C760.56 101.031 756.891 100.321 752.487 100.321C746.474 100.321 741.455 101.67 737.43 104.369C733.406 107.021 731.393 110.454 731.393 114.668C731.393 118.313 732.743 121.249 735.442 123.474C738.141 125.7 742.497 127.523 748.51 128.943L765.839 132.92C775.877 135.241 783.358 138.815 788.283 143.645C793.207 148.474 795.669 154.748 795.669 162.466C795.669 169 793.775 174.824 789.987 179.938C786.247 185.004 781.015 188.981 774.291 191.869C767.615 194.758 759.874 196.202 751.067 196.202C738.851 196.202 728.884 193.598 721.166 188.389C713.448 183.134 708.714 175.676 706.962 166.017L727.487 162.892C728.766 168.242 731.393 172.291 735.371 175.037C739.348 177.736 744.533 179.085 750.925 179.085C757.885 179.085 763.448 177.641 767.615 174.753C771.782 171.817 773.865 168.242 773.865 164.028C773.865 160.619 772.587 157.755 770.03 155.435C767.52 153.115 763.661 151.363 758.453 150.179L739.987 146.131C729.807 143.811 722.279 140.117 717.402 135.051C712.572 129.985 710.158 123.569 710.158 115.804C710.158 109.365 711.957 103.73 715.555 98.9006C719.154 94.071 724.125 90.3068 730.47 87.608C736.815 84.8617 744.083 83.4886 752.274 83.4886C764.064 83.4886 773.344 86.0455 780.115 91.1591C786.886 96.2254 791.36 103.02 793.538 111.543ZM864.969 196.202C854.411 196.202 845.32 193.811 837.697 189.028C830.121 184.199 824.297 177.546 820.225 169.071C816.153 160.596 814.117 150.889 814.117 139.952C814.117 128.872 816.201 119.095 820.367 110.619C824.534 102.097 830.405 95.4441 837.981 90.6619C845.557 85.8797 854.482 83.4886 864.756 83.4886C873.042 83.4886 880.429 85.0275 886.915 88.1051C893.402 91.1354 898.634 95.3968 902.612 100.889C906.636 106.382 909.027 112.797 909.785 120.136H889.117C887.981 115.023 885.377 110.619 881.305 106.926C877.28 103.233 871.882 101.386 865.112 101.386C859.193 101.386 854.008 102.949 849.558 106.074C845.154 109.152 841.721 113.555 839.259 119.284C836.797 124.966 835.566 131.689 835.566 139.455C835.566 147.409 836.773 154.275 839.188 160.051C841.603 165.828 845.012 170.302 849.415 173.474C853.866 176.647 859.098 178.233 865.112 178.233C869.136 178.233 872.782 177.499 876.049 176.031C879.363 174.516 882.133 172.362 884.359 169.568C886.631 166.775 888.218 163.413 889.117 159.483H909.785C909.027 166.538 906.731 172.835 902.896 178.375C899.06 183.915 893.923 188.271 887.484 191.443C881.092 194.616 873.587 196.202 864.969 196.202ZM932.494 194V84.9091H953.02V102.239H954.156C956.145 96.3674 959.649 91.7509 964.668 88.3892C969.734 84.9801 975.463 83.2756 981.855 83.2756C983.181 83.2756 984.743 83.3229 986.543 83.4176C988.389 83.5123 989.833 83.6307 990.875 83.7727V104.085C990.023 103.848 988.508 103.588 986.33 103.304C984.152 102.973 981.973 102.807 979.795 102.807C974.777 102.807 970.302 103.872 966.372 106.003C962.49 108.086 959.412 110.998 957.139 114.739C954.866 118.432 953.73 122.646 953.73 127.381V194H932.494ZM1009.25 194V84.9091H1030.49V194H1009.25ZM1019.98 68.0767C1016.28 68.0767 1013.11 66.8456 1010.46 64.3835C1007.86 61.874 1006.55 58.8911 1006.55 55.4347C1006.55 51.9309 1007.86 48.9479 1010.46 46.4858C1013.11 43.9763 1016.28 42.7216 1019.98 42.7216C1023.67 42.7216 1026.82 43.9763 1029.42 46.4858C1032.07 48.9479 1033.4 51.9309 1033.4 55.4347C1033.4 58.8911 1032.07 61.874 1029.42 64.3835C1026.82 66.8456 1023.67 68.0767 1019.98 68.0767ZM1059.06 234.909V84.9091H1079.8V102.594H1081.57C1082.8 100.321 1084.58 97.6932 1086.9 94.7102C1089.22 91.7273 1092.44 89.1231 1096.56 86.8977C1100.68 84.625 1106.12 83.4886 1112.89 83.4886C1121.7 83.4886 1129.56 85.714 1136.47 90.1648C1143.38 94.6155 1148.81 101.031 1152.74 109.412C1156.71 117.793 1158.7 127.878 1158.7 139.668C1158.7 151.457 1156.74 161.566 1152.81 169.994C1148.88 178.375 1143.48 184.838 1136.61 189.384C1129.75 193.882 1121.91 196.131 1113.11 196.131C1106.48 196.131 1101.05 195.018 1096.84 192.793C1092.67 190.567 1089.41 187.963 1087.04 184.98C1084.67 181.997 1082.85 179.346 1081.57 177.026H1080.29V234.909H1059.06ZM1079.87 139.455C1079.87 147.125 1080.98 153.848 1083.2 159.625C1085.43 165.402 1088.65 169.923 1092.86 173.19C1097.08 176.41 1102.24 178.02 1108.35 178.02C1114.69 178.02 1119.99 176.339 1124.26 172.977C1128.52 169.568 1131.74 164.952 1133.91 159.128C1136.14 153.304 1137.25 146.746 1137.25 139.455C1137.25 132.258 1136.16 125.795 1133.99 120.065C1131.86 114.336 1128.64 109.814 1124.33 106.5C1120.07 103.186 1114.74 101.528 1108.35 101.528C1102.19 101.528 1096.98 103.115 1092.72 106.287C1088.51 109.459 1085.31 113.886 1083.13 119.568C1080.96 125.25 1079.87 131.879 1079.87 139.455ZM1233.42 84.9091V101.955H1173.83V84.9091H1233.42ZM1189.81 58.7727H1211.05V161.969C1211.05 166.088 1211.66 169.189 1212.89 171.273C1214.12 173.309 1215.71 174.705 1217.65 175.463C1219.64 176.173 1221.79 176.528 1224.11 176.528C1225.82 176.528 1227.31 176.41 1228.59 176.173C1229.87 175.937 1230.86 175.747 1231.57 175.605L1235.41 193.148C1234.18 193.621 1232.42 194.095 1230.15 194.568C1227.88 195.089 1225.04 195.373 1221.63 195.42C1216.04 195.515 1210.83 194.521 1206 192.438C1201.17 190.354 1197.27 187.134 1194.28 182.778C1191.3 178.422 1189.81 172.954 1189.81 166.372V58.7727Z" fill="black"/>
<defs>
<clipPath id="clip0_57_76">
<rect width="240" height="240" fill="white"/>
</clipPath>
</defs>
</svg>
