<svg width="946" height="240" viewBox="0 0 946 240" fill="none" xmlns="http://www.w3.org/2000/svg">
<path fill-rule="evenodd" clip-rule="evenodd" d="M138.462 0L276.923 240H0L138.462 0Z" fill="black"/>
<path d="M439.599 84.9091L400.04 194H377.312L337.682 84.9091H360.48L388.108 168.858H389.244L416.801 84.9091H439.599ZM502.863 196.202C492.115 196.202 482.858 193.905 475.093 189.312C467.375 184.672 461.409 178.162 457.195 169.781C453.029 161.353 450.945 151.481 450.945 140.165C450.945 128.991 453.029 119.142 457.195 110.619C461.409 102.097 467.281 95.4441 474.809 90.6619C482.385 85.8797 491.239 83.4886 501.371 83.4886C507.527 83.4886 513.493 84.5066 519.269 86.5426C525.046 88.5786 530.23 91.7746 534.823 96.1307C539.416 100.487 543.038 106.145 545.69 113.105C548.341 120.018 549.667 128.422 549.667 138.318V145.847H462.948V129.938H528.857C528.857 124.35 527.721 119.402 525.448 115.094C523.175 110.738 519.979 107.305 515.86 104.795C511.788 102.286 507.006 101.031 501.513 101.031C495.548 101.031 490.339 102.499 485.888 105.435C481.485 108.323 478.076 112.111 475.661 116.798C473.294 121.438 472.11 126.481 472.11 131.926V144.355C472.11 151.647 473.388 157.849 475.945 162.963C478.549 168.077 482.172 171.983 486.812 174.682C491.452 177.333 496.873 178.659 503.076 178.659C507.101 178.659 510.77 178.091 514.085 176.955C517.399 175.771 520.263 174.019 522.678 171.699C525.093 169.379 526.94 166.514 528.218 163.105L548.317 166.727C546.708 172.646 543.819 177.83 539.653 182.281C535.533 186.685 530.349 190.117 524.099 192.58C517.896 194.994 510.817 196.202 502.863 196.202ZM573.229 194V84.9091H593.754V102.239H594.891C596.879 96.3674 600.383 91.7509 605.402 88.3892C610.468 84.9801 616.197 83.2756 622.589 83.2756C623.915 83.2756 625.478 83.3229 627.277 83.4176C629.124 83.5123 630.568 83.6307 631.609 83.7727V104.085C630.757 103.848 629.242 103.588 627.064 103.304C624.886 102.973 622.708 102.807 620.53 102.807C615.511 102.807 611.036 103.872 607.107 106.003C603.224 108.086 600.146 110.998 597.874 114.739C595.601 118.432 594.464 122.646 594.464 127.381V194H573.229ZM692.032 196.202C681.473 196.202 672.382 193.811 664.759 189.028C657.183 184.199 651.36 177.546 647.288 169.071C643.216 160.596 641.18 150.889 641.18 139.952C641.18 128.872 643.263 119.095 647.43 110.619C651.596 102.097 657.468 95.4441 665.043 90.6619C672.619 85.8797 681.544 83.4886 691.819 83.4886C700.105 83.4886 707.491 85.0275 713.978 88.1051C720.465 91.1354 725.697 95.3968 729.674 100.889C733.699 106.382 736.09 112.797 736.847 120.136H716.18C715.043 115.023 712.439 110.619 708.367 106.926C704.343 103.233 698.945 101.386 692.174 101.386C686.255 101.386 681.071 102.949 676.62 106.074C672.217 109.152 668.784 113.555 666.322 119.284C663.86 124.966 662.629 131.689 662.629 139.455C662.629 147.409 663.836 154.275 666.251 160.051C668.665 165.828 672.075 170.302 676.478 173.474C680.929 176.647 686.161 178.233 692.174 178.233C696.199 178.233 699.844 177.499 703.112 176.031C706.426 174.516 709.196 172.362 711.421 169.568C713.694 166.775 715.28 163.413 716.18 159.483H736.847C736.09 166.538 733.793 172.835 729.958 178.375C726.123 183.915 720.986 188.271 714.546 191.443C708.154 194.616 700.649 196.202 692.032 196.202ZM806.574 196.202C795.826 196.202 786.569 193.905 778.804 189.312C771.086 184.672 765.12 178.162 760.906 169.781C756.74 161.353 754.656 151.481 754.656 140.165C754.656 128.991 756.74 119.142 760.906 110.619C765.12 102.097 770.991 95.4441 778.52 90.6619C786.096 85.8797 794.95 83.4886 805.082 83.4886C811.238 83.4886 817.204 84.5066 822.98 86.5426C828.757 88.5786 833.941 91.7746 838.534 96.1307C843.127 100.487 846.749 106.145 849.401 113.105C852.052 120.018 853.378 128.422 853.378 138.318V145.847H766.659V129.938H832.568C832.568 124.35 831.432 119.402 829.159 115.094C826.886 110.738 823.69 107.305 819.571 104.795C815.499 102.286 810.717 101.031 805.224 101.031C799.259 101.031 794.05 102.499 789.599 105.435C785.196 108.323 781.787 112.111 779.372 116.798C777.005 121.438 775.821 126.481 775.821 131.926V144.355C775.821 151.647 777.099 157.849 779.656 162.963C782.26 168.077 785.883 171.983 790.523 174.682C795.163 177.333 800.584 178.659 806.787 178.659C810.812 178.659 814.481 178.091 817.795 176.955C821.11 175.771 823.974 174.019 826.389 171.699C828.804 169.379 830.651 166.514 831.929 163.105L852.028 166.727C850.419 172.646 847.53 177.83 843.364 182.281C839.244 186.685 834.06 190.117 827.81 192.58C821.607 194.994 814.528 196.202 806.574 196.202ZM898.175 48.5455V194H876.94V48.5455H898.175Z" fill="black"/>
</svg>
